<svg xmlns="http://www.w3.org/2000/svg" xmlns:xlink="http://www.w3.org/1999/xlink" viewBox="0 0 90.35 95.48"><defs><style>.cls-1{fill:url(#linear-gradient);}.cls-2,.cls-7{fill:none;stroke-width:1.26px;}.cls-2{stroke:#d4dde8;opacity:0.45;}.cls-2,.cls-6,.cls-7{isolation:isolate;}.cls-3{fill:#b5e8ec;}.cls-4{fill:#36d38c;}.cls-5{fill:#9feac8;}.cls-6{opacity:0.67;fill:url(#linear-gradient-2);}.cls-7{stroke:#7195ba;opacity:0.42;}</style><linearGradient id="linear-gradient" x1="-4556.85" y1="1645.03" x2="-4555.85" y2="1645.03" gradientTransform="matrix(46.93, -57.95, -63.35, -51.3, 318064.81, -179597.66)" gradientUnits="userSpaceOnUse"><stop offset="0" stop-color="#cff0f3"/><stop offset="0.43" stop-color="#86e5ba"/><stop offset="0.76" stop-color="#36d38c"/><stop offset="1" stop-color="#78e2b2"/></linearGradient><linearGradient id="linear-gradient-2" x1="-4548.06" y1="1645.19" x2="-4548.02" y2="1643.98" gradientTransform="matrix(39.04, -48.21, -61.82, -50.06, 279299.07, -136881.35)" gradientUnits="userSpaceOnUse"><stop offset="0" stop-color="#36d38c"/><stop offset="0.48" stop-color="#9bcb41"/><stop offset="0.85" stop-color="#b5e8ec"/></linearGradient></defs><title>green</title><g id="Layer_2" data-name="Layer 2"><g id="Layer_1-2" data-name="Layer 1"><g id="Group_722" data-name="Group 722"><g id="Group_686" data-name="Group 686"><path id="Path_7324" data-name="Path 7324" class="cls-1" d="M62.28,22.84l-.49.21-.49.22-.49.22-.48.22-.33.15,19.12,49L22.32,49.36l-.18.17-.36.36-.37.37-.37.36-.36.37-.36.37-.36.37-.36.37-.36.38-.35.37c-.12.13-.24.25-.35.38l-.36.38-.35.38-.34.38-.35.38-.35.38-.34.39-.34.39-.34.39-.33.39-.34.39-.33.39-.33.39-.33.4-.33.39-.32.4-.33.4-.32.4-.33.4-.31.41-.32.4-.31.41-.32.4-.31.41-.31.41-.3.42-.31.41L.71,40.43,1,40l.29-.41.3-.4.3-.4.3-.4.3-.4.31-.39.3-.4,0,0,.28-.36.31-.4L4,36.05l.32-.39.31-.39L5,34.88l.31-.39.3-.35L5.72,34l.22-.26c.1-.13.21-.25.32-.38L6.59,33c.1-.13.22-.25.33-.38l.32-.37.34-.38.33-.37.26-.3.23-.25.16-.18.34-.37L9.24,30l.34-.37.34-.37.35-.36.34-.36.24-.25.37-.38.09-.09.35-.36L12,27.1l.36-.36.36-.35.35-.35c.12-.12.24-.24.37-.35l.17-.18.51-.49,0,0,.36-.35.37-.34.37-.35.37-.34.37-.35.38-.34.14-.12.59-.54h0l.38-.34.38-.33.38-.34.39-.33.38-.33.39-.33.09-.08.72-.6.35-.29L21,19l.39-.31.39-.32.39-.32.4-.31.07-.06.75-.59.37-.29.41-.3.4-.31.41-.3.4-.3.41-.3.08-.06.76-.56.39-.28.41-.29.42-.3.41-.29.42-.28.42-.29.1-.07.68-.47.06,0,.42-.28.42-.28.43-.28.42-.28.43-.27.43-.28.18-.11.54-.35.15-.09.43-.27.43-.26.44-.27L35.07,9l.44-.27L36,8.51l.23-.14.45-.26.2-.12.44-.25.44-.26.45-.25L38.61,7l.44-.25.45-.25.3-.17.31-.16A2.69,2.69,0,0,1,40.4,6l.45-.25.46-.24.45-.24L42.21,5l.46-.24.45-.23.37-.19.17-.09L44,4.09l.46-.23s.3-.16.46-.23l.46-.23.46-.22L46.35,3l.46-.22.46-.21h0l.46-.22.47-.21.47-.22.46-.21.47-.21.48-.21L50.57,1,51,.82Z"/><path id="Path_7325" data-name="Path 7325" class="cls-2" d="M62.28,22.84l-.49.21-.49.22-.49.22-.48.22-.33.15,19.12,49L22.32,49.36l-.18.17-.36.36-.37.37-.37.36-.36.37-.36.37-.36.37-.36.37-.36.38-.35.37c-.12.13-.24.25-.35.38l-.36.38-.35.38-.34.38-.35.38-.35.38-.34.39-.34.39-.34.39-.33.39-.34.39-.33.39-.33.39-.33.4-.33.39-.32.4-.33.4-.32.4-.33.4-.31.41-.32.4-.31.41-.32.4-.31.41-.31.41-.3.42-.31.41L.71,40.43,1,40l.29-.41.3-.4.3-.4.3-.4.3-.4.31-.39.3-.4,0,0,.28-.36.31-.4L4,36.05l.32-.39.31-.39L5,34.88l.31-.39.3-.35L5.72,34l.22-.26c.1-.13.21-.25.32-.38L6.59,33c.1-.13.22-.25.33-.38l.32-.37.34-.38.33-.37.26-.3.23-.25.16-.18.34-.37L9.24,30l.34-.37.34-.37.35-.36.34-.36.24-.25.37-.38.09-.09.35-.36L12,27.1l.36-.36.36-.35.35-.35c.12-.12.24-.24.37-.35l.17-.18.51-.49,0,0,.36-.35.37-.34.37-.35.37-.34.37-.35.38-.34.14-.12.59-.54h0l.38-.34.38-.33.38-.34.39-.33.38-.33.39-.33.09-.08.72-.6.35-.29L21,19l.39-.31.39-.32.39-.32.4-.31.07-.06.75-.59.37-.29.41-.3.4-.31.41-.3.4-.3.41-.3.08-.06.76-.56.39-.28.41-.29.42-.3.41-.29.42-.28.42-.29.1-.07.68-.47.06,0,.42-.28.42-.28.43-.28.42-.28.43-.27.43-.28.18-.11.54-.35.15-.09.43-.27.43-.26.44-.27L35.07,9l.44-.27L36,8.51l.23-.14.45-.26.2-.12.44-.25.44-.26.45-.25L38.61,7l.44-.25.45-.25.3-.17.31-.16A2.69,2.69,0,0,1,40.4,6l.45-.25.46-.24.45-.24L42.21,5l.46-.24.45-.23.37-.19.17-.09L44,4.09l.46-.23s.3-.16.46-.23l.46-.23.46-.22L46.35,3l.46-.22.46-.21h0l.46-.22.47-.21.47-.22.46-.21.47-.21.48-.21L50.57,1,51,.82Z"/><g id="Group_685" data-name="Group 685"><path id="Path_7326" data-name="Path 7326" class="cls-3" d="M89,94.37,11.63,63.71,10,63.52l80.36,31.8Z"/><path id="Path_7327" data-name="Path 7327" class="cls-4" d="M61.92,24.6,89,94.37l1.32.95L62.28,22.84Z"/><path id="Path_7328" data-name="Path 7328" class="cls-5" d="M11.63,63.7l.29-.39.29-.39.3-.39.3-.39.3-.38-1.57-.29-.32.4-.31.41-.31.41-.3.41-.31.42Z"/><path id="Path_7329" data-name="Path 7329" class="cls-5" d="M13.1,61.75l.3-.38.31-.39.3-.38.31-.38.31-.39.31-.38.31-.38.31-.38-1.45-.43-.33.39-.33.4-.32.4-.33.4-.32.4-.32.4-.31.41-.31.41Z"/><path id="Path_7330" data-name="Path 7330" class="cls-5" d="M15.57,58.69c.1-.12.2-.25.31-.37l.32-.38.32-.38.32-.37.33-.37.32-.38.33-.37.33-.36.33-.37.33-.37s.23-.24.34-.37l.34-.36.34-.36.34-.36.35-.37.34-.36-1.26-.68-.36.37-.35.37-.35.38-.36.38-.35.38-.34.38-.35.38-.34.38-.35.39-.34.39-.34.39-.33.39-.34.39-.33.39-.33.39-.33.4Z"/><path id="Path_7331" data-name="Path 7331" class="cls-5" d="M20.85,52.8l.35-.36.35-.36.35-.36.36-.36.35-.35.36-.36.36-.35.36-.35.36-.35.37-.35.36-.35.37-.34L24,47.73l-.37.36-.38.36-.37.36-.37.36-.38.36-.36.36c-.13.12-.37.37-.37.37l-.37.36-.36.37-.36.37-.36.37-.36.37Z"/><path id="Path_7332" data-name="Path 7332" class="cls-5" d="M25.12,48.59l.37-.34.37-.34.37-.35.38-.34.37-.34.38-.33.38-.34.38-.34.38-.33.38-.33.39-.33.39-.33.38-.33.39-.32.4-.32.38-.32.39-.33.4-.31.39-.32.4-.31.39-.32.4-.31.4-.31-.81-1.13-.42.32-.41.32-.41.33-.41.32-.41.33-.4.33-.45.37-.4.34-.4.33-.39.33-.4.34-.4.33-.39.34-.4.34-.39.35-.39.34-.39.35-.38.34-.39.35-.38.35-.39.35-.38.36-.38.35Z"/><path id="Path_7333" data-name="Path 7333" class="cls-5" d="M34,41.09l.4-.31.4-.3.4-.31.41-.31.41-.3.41-.3.4-.3.41-.3.42-.29.41-.3.41-.29-.66-1.24-.43.3-.43.3-.42.31-.42.31-.43.31-.42.31-.42.31-.42.32-.42.31-.42.32-.41.32Z"/><path id="Path_7334" data-name="Path 7334" class="cls-5" d="M38.43,37.78l.42-.29.42-.29.42-.29.42-.29.42-.28.42-.29.42-.28.43-.28.42-.28.43-.28.43-.28.43-.27.43-.27.43-.27.43-.27.44-.27s.28-.18.43-.26l.44-.27.43-.26.44-.26.44-.26.44-.26.44-.26.44-.25.44-.25.44-.25.45-.25.45-.25L51,30l.45-.24.45-.24.45-.24.45-.24.45-.24.45-.24.45-.23.46-.23.45-.23.45-.23.46-.23.46-.22.46-.22.09-1.65-.48.23-.48.24L55.5,26l-.47.23-.48.24-.47.24L53.6,27l-.47.24-.47.25-.47.25-.47.25-.47.25-.47.26-.46.25-.47.26-.46.26-.46.26-.46.26L48,30l-.47.27-.46.27-.46.27-.45.28-.46.27-.45.28-.46.27-.45.28-.45.28-.44.28L43,33l-.45.29-.44.28-.44.29-.44.28-.44.29-.43.28-.43.29-.44.3-.43.29-.44.31-.43.3-.43.3Z"/><path id="Path_7335" data-name="Path 7335" class="cls-5" d="M56.84,26.94l.46-.22.46-.22.46-.22.46-.22.46-.21.46-.21.46-.21.26-1.72-.48.22-.49.22-.48.22-.49.23-.48.23-.48.23-.48.23Z"/><path id="Path_7336" data-name="Path 7336" class="cls-5" d="M60.07,25.43l.46-.21.29-1.73-.49.22Z"/><path id="Path_7337" data-name="Path 7337" class="cls-5" d="M60.53,25.22,61,25l.46-.2.46-.2.36-1.77-.49.21-.49.22-.49.22Z"/><path id="Path_7338" data-name="Path 7338" class="cls-6" d="M11.63,63.71C24.12,46.76,42,33.25,61.92,24.6h0L89,94.37h0Z"/></g></g><path id="Path_7780" data-name="Path 7780" class="cls-7" d="M11.63,63.71C24.12,46.76,42,33.25,61.92,24.6h0L89,94.37h0Z"/></g></g></g></svg>