<svg xmlns="http://www.w3.org/2000/svg" xmlns:xlink="http://www.w3.org/1999/xlink" viewBox="0 0 105.43 91.37"><defs><style>.cls-1,.cls-2{fill:#ff822e;}.cls-130,.cls-2{stroke:#ffd500;stroke-width:1.13px;}.cls-3{fill:url(#linear-gradient);}.cls-4{fill:url(#linear-gradient-2);}.cls-5{fill:url(#linear-gradient-3);}.cls-6{fill:url(#linear-gradient-4);}.cls-7{fill:url(#linear-gradient-5);}.cls-8{fill:url(#linear-gradient-6);}.cls-9{fill:url(#linear-gradient-7);}.cls-10{fill:url(#linear-gradient-8);}.cls-11{fill:url(#linear-gradient-9);}.cls-12{fill:url(#linear-gradient-10);}.cls-13{fill:url(#linear-gradient-11);}.cls-14{fill:url(#linear-gradient-12);}.cls-15{fill:url(#linear-gradient-13);}.cls-16{fill:url(#linear-gradient-14);}.cls-17{fill:url(#linear-gradient-15);}.cls-18{fill:url(#linear-gradient-16);}.cls-19{fill:url(#linear-gradient-17);}.cls-20{fill:url(#linear-gradient-18);}.cls-21{fill:url(#linear-gradient-19);}.cls-22{fill:url(#linear-gradient-20);}.cls-23{fill:url(#linear-gradient-21);}.cls-24{fill:url(#linear-gradient-22);}.cls-25{fill:url(#linear-gradient-23);}.cls-26{fill:url(#linear-gradient-24);}.cls-27{fill:url(#linear-gradient-25);}.cls-28{fill:url(#linear-gradient-26);}.cls-29{fill:url(#linear-gradient-27);}.cls-30{fill:url(#linear-gradient-28);}.cls-31{fill:url(#linear-gradient-29);}.cls-32{fill:url(#linear-gradient-30);}.cls-33{fill:url(#linear-gradient-31);}.cls-34{fill:url(#linear-gradient-32);}.cls-35{fill:url(#linear-gradient-33);}.cls-36{fill:url(#linear-gradient-34);}.cls-37{fill:url(#linear-gradient-35);}.cls-38{fill:url(#linear-gradient-36);}.cls-39{fill:url(#linear-gradient-37);}.cls-40{fill:url(#linear-gradient-38);}.cls-41{fill:url(#linear-gradient-39);}.cls-42{fill:url(#linear-gradient-40);}.cls-43{fill:url(#linear-gradient-41);}.cls-44{fill:url(#linear-gradient-42);}.cls-45{fill:url(#linear-gradient-43);}.cls-46{fill:url(#linear-gradient-44);}.cls-47{fill:url(#linear-gradient-45);}.cls-48{fill:url(#linear-gradient-46);}.cls-49{fill:url(#linear-gradient-47);}.cls-50{fill:url(#linear-gradient-48);}.cls-51{fill:url(#linear-gradient-49);}.cls-52{fill:url(#linear-gradient-50);}.cls-53{fill:url(#linear-gradient-51);}.cls-54{fill:url(#linear-gradient-52);}.cls-55{fill:url(#linear-gradient-53);}.cls-56{fill:url(#linear-gradient-54);}.cls-57{fill:url(#linear-gradient-55);}.cls-58{fill:url(#linear-gradient-56);}.cls-59{fill:url(#linear-gradient-57);}.cls-60{fill:url(#linear-gradient-58);}.cls-61{fill:url(#linear-gradient-59);}.cls-62{fill:url(#linear-gradient-60);}.cls-63{fill:url(#linear-gradient-61);}.cls-64{fill:url(#linear-gradient-62);}.cls-65{fill:url(#linear-gradient-63);}.cls-66{fill:url(#linear-gradient-64);}.cls-67{fill:url(#linear-gradient-65);}.cls-68{fill:url(#linear-gradient-66);}.cls-69{fill:url(#linear-gradient-67);}.cls-70{fill:url(#linear-gradient-68);}.cls-71{fill:url(#linear-gradient-69);}.cls-72{fill:url(#linear-gradient-70);}.cls-73{fill:url(#linear-gradient-71);}.cls-74{fill:url(#linear-gradient-72);}.cls-75{fill:url(#linear-gradient-73);}.cls-76{fill:url(#linear-gradient-74);}.cls-77{fill:url(#linear-gradient-75);}.cls-78{fill:url(#linear-gradient-76);}.cls-79{fill:url(#linear-gradient-77);}.cls-80{fill:url(#linear-gradient-78);}.cls-81{fill:url(#linear-gradient-79);}.cls-82{fill:url(#linear-gradient-80);}.cls-83{fill:url(#linear-gradient-81);}.cls-84{fill:url(#linear-gradient-82);}.cls-85{fill:url(#linear-gradient-83);}.cls-86{fill:url(#linear-gradient-84);}.cls-87{fill:url(#linear-gradient-85);}.cls-88{fill:url(#linear-gradient-86);}.cls-89{fill:url(#linear-gradient-87);}.cls-90{fill:url(#linear-gradient-88);}.cls-91{fill:url(#linear-gradient-89);}.cls-92{fill:url(#linear-gradient-90);}.cls-93{fill:url(#linear-gradient-91);}.cls-94{fill:url(#linear-gradient-92);}.cls-95{fill:url(#linear-gradient-93);}.cls-96{fill:url(#linear-gradient-94);}.cls-97{fill:url(#linear-gradient-95);}.cls-98{fill:url(#linear-gradient-96);}.cls-99{fill:url(#linear-gradient-97);}.cls-100{fill:url(#linear-gradient-98);}.cls-101{fill:url(#linear-gradient-99);}.cls-102{fill:url(#linear-gradient-100);}.cls-103{fill:url(#linear-gradient-101);}.cls-104{fill:url(#linear-gradient-102);}.cls-105{fill:url(#linear-gradient-103);}.cls-106{fill:url(#linear-gradient-104);}.cls-107{fill:url(#linear-gradient-105);}.cls-108{fill:url(#linear-gradient-106);}.cls-109{fill:url(#linear-gradient-107);}.cls-110{fill:url(#linear-gradient-108);}.cls-111{fill:url(#linear-gradient-109);}.cls-112{fill:url(#linear-gradient-110);}.cls-113{fill:url(#linear-gradient-111);}.cls-114{fill:url(#linear-gradient-112);}.cls-115{fill:url(#linear-gradient-113);}.cls-116{fill:url(#linear-gradient-114);}.cls-117{fill:url(#linear-gradient-115);}.cls-118{fill:url(#linear-gradient-116);}.cls-119{fill:url(#linear-gradient-117);}.cls-120{fill:url(#linear-gradient-118);}.cls-121{fill:url(#linear-gradient-119);}.cls-122{fill:url(#linear-gradient-120);}.cls-123{fill:url(#linear-gradient-121);}.cls-124{fill:url(#linear-gradient-122);}.cls-125{fill:url(#linear-gradient-123);}.cls-126{fill:url(#linear-gradient-124);}.cls-127{fill:url(#linear-gradient-125);}.cls-128{fill:url(#linear-gradient-126);}.cls-129{fill:#ffa364;opacity:0.9;isolation:isolate;}.cls-130{fill:url(#linear-gradient-127);}</style><linearGradient id="linear-gradient" x1="-4745.9" y1="1578.83" x2="-4744.9" y2="1578.83" gradientTransform="matrix(67.96, 0, 0, -59.84, 322541.88, 94501.08)" gradientUnits="userSpaceOnUse"><stop offset="0" stop-color="#fff"/><stop offset="0.09" stop-color="#fffef9"/><stop offset="0.22" stop-color="#fffbe8"/><stop offset="0.36" stop-color="#fff6cd"/><stop offset="0.52" stop-color="#fff0a6"/><stop offset="0.68" stop-color="#ffe875"/><stop offset="0.85" stop-color="#ffde3a"/><stop offset="1" stop-color="#ffd500"/></linearGradient><linearGradient id="linear-gradient-2" x1="-455.96" y1="4000.65" x2="-454.96" y2="4000.65" gradientTransform="matrix(0.73, 0, 0, -0.56, 401.49, 2256.51)" xlink:href="#linear-gradient"/><linearGradient id="linear-gradient-3" x1="-554.47" y1="4013.42" x2="-553.47" y2="4013.42" gradientTransform="matrix(0.75, 0, 0, -0.56, 483.31, 2252.24)" xlink:href="#linear-gradient"/><linearGradient id="linear-gradient-4" x1="-621.95" y1="4058.06" x2="-620.95" y2="4058.06" gradientTransform="matrix(0.76, 0, 0, -0.55, 541.72, 2236.96)" xlink:href="#linear-gradient"/><linearGradient id="linear-gradient-5" x1="-702.2" y1="4072" x2="-701.2" y2="4072" gradientTransform="matrix(0.77, 0, 0, -0.55, 613.59, 2232.52)" xlink:href="#linear-gradient"/><linearGradient id="linear-gradient-6" x1="-770.71" y1="4099.19" x2="-769.71" y2="4099.19" gradientTransform="matrix(0.79, 0, 0, -0.54, 677.27, 2223.7)" xlink:href="#linear-gradient"/><linearGradient id="linear-gradient-7" x1="-830.31" y1="4128.16" x2="-829.31" y2="4128.16" gradientTransform="matrix(0.8, 0, 0, -0.54, 734.5, 2214.51)" xlink:href="#linear-gradient"/><linearGradient id="linear-gradient-8" x1="-894.05" y1="4157.18" x2="-893.05" y2="4157.18" gradientTransform="matrix(0.81, 0, 0, -0.53, 797.58, 2205.52)" xlink:href="#linear-gradient"/><linearGradient id="linear-gradient-9" x1="-2377.92" y1="3197.3" x2="-2376.92" y2="3197.3" gradientTransform="matrix(1.31, 0, 0, -0.84, 3189.62, 2688.18)" xlink:href="#linear-gradient"/><linearGradient id="linear-gradient-10" x1="-2415.98" y1="3206.9" x2="-2414.98" y2="3206.9" gradientTransform="matrix(1.33, 0, 0, -0.84, 3291.19, 2681.23)" xlink:href="#linear-gradient"/><linearGradient id="linear-gradient-11" x1="-3402.23" y1="2473.13" x2="-3401.23" y2="2473.13" gradientTransform="matrix(2.28, 0, 0, -1.5, 7820.76, 3721.44)" xlink:href="#linear-gradient"/><linearGradient id="linear-gradient-12" x1="-2485.12" y1="3227.18" x2="-2484.12" y2="3227.18" gradientTransform="matrix(1.37, 0, 0, -0.82, 3485.24, 2667.48)" xlink:href="#linear-gradient"/><linearGradient id="linear-gradient-13" x1="-2505.07" y1="3243.66" x2="-2504.07" y2="3243.66" gradientTransform="matrix(1.38, 0, 0, -0.82, 3543.46, 2655.65)" xlink:href="#linear-gradient"/><linearGradient id="linear-gradient-14" x1="-1484.78" y1="4566.25" x2="-1483.78" y2="4566.25" gradientTransform="matrix(0.96, 0, 0, -0.46, 1498.52, 2097.83)" xlink:href="#linear-gradient"/><linearGradient id="linear-gradient-15" x1="-1515.29" y1="4599.51" x2="-1514.29" y2="4599.51" gradientTransform="matrix(0.97, 0, 0, -0.45, 1541.65, 2090.41)" xlink:href="#linear-gradient"/><linearGradient id="linear-gradient-16" x1="-1555.79" y1="4633.52" x2="-1554.79" y2="4633.52" gradientTransform="matrix(0.98, 0, 0, -0.45, 1599.99, 2082.99)" xlink:href="#linear-gradient"/><linearGradient id="linear-gradient-17" x1="-1581.83" y1="4668.29" x2="-1580.83" y2="4668.29" gradientTransform="matrix(0.99, 0, 0, -0.44, 1638.44, 2075.57)" xlink:href="#linear-gradient"/><linearGradient id="linear-gradient-18" x1="-1617.22" y1="4725.94" x2="-1616.22" y2="4725.94" gradientTransform="matrix(1, 0, 0, -0.43, 1691.5, 2063.41)" xlink:href="#linear-gradient"/><linearGradient id="linear-gradient-19" x1="-1648.78" y1="4755.58" x2="-1647.78" y2="4755.58" gradientTransform="matrix(1.01, 0, 0, -0.43, 1739.89, 2057.52)" xlink:href="#linear-gradient"/><linearGradient id="linear-gradient-20" x1="-1658.28" y1="4799.69" x2="-1657.28" y2="4799.69" gradientTransform="matrix(1.01, 0, 0, -0.43, 1754.92, 2048.78)" xlink:href="#linear-gradient"/><linearGradient id="linear-gradient-21" x1="-1698.29" y1="4838.34" x2="-1697.29" y2="4838.34" gradientTransform="matrix(1.02, 0, 0, -0.42, 1817.92, 2041.38)" xlink:href="#linear-gradient"/><linearGradient id="linear-gradient-22" x1="-1731.17" y1="4878.9" x2="-1730.17" y2="4878.9" gradientTransform="matrix(1.03, 0, 0, -0.41, 1870.97, 2033.78)" xlink:href="#linear-gradient"/><linearGradient id="linear-gradient-23" x1="-1743.05" y1="4885.76" x2="-1742.05" y2="4885.76" gradientTransform="matrix(1.04, 0, 0, -0.41, 1890.67, 2032.84)" xlink:href="#linear-gradient"/><linearGradient id="linear-gradient-24" x1="-1766.18" y1="4951.84" x2="-1765.18" y2="4951.84" gradientTransform="matrix(1.05, 0, 0, -0.41, 1929.09, 2020.7)" xlink:href="#linear-gradient"/><linearGradient id="linear-gradient-25" x1="-1788.96" y1="5002.62" x2="-1787.96" y2="5002.62" gradientTransform="matrix(1.05, 0, 0, -0.4, 1967.5, 2011.79)" xlink:href="#linear-gradient"/><linearGradient id="linear-gradient-26" x1="-1814.48" y1="4910.48" x2="-1813.48" y2="4910.48" gradientTransform="matrix(1.06, 0, 0, -0.41, 2011.17, 2029.29)" xlink:href="#linear-gradient"/><linearGradient id="linear-gradient-27" x1="-1839.24" y1="4830.73" x2="-1838.24" y2="4830.73" gradientTransform="matrix(1.07, 0, 0, -0.42, 2054.26, 2045.27)" xlink:href="#linear-gradient"/><linearGradient id="linear-gradient-28" x1="-1850.63" y1="4740.24" x2="-1849.63" y2="4740.24" gradientTransform="matrix(1.08, 0, 0, -0.43, 2074.52, 2064.29)" xlink:href="#linear-gradient"/><linearGradient id="linear-gradient-29" x1="-1872.17" y1="4654.63" x2="-1871.17" y2="4654.63" gradientTransform="matrix(1.08, 0, 0, -0.44, 2112.91, 2083.31)" xlink:href="#linear-gradient"/><linearGradient id="linear-gradient-30" x1="-1885.91" y1="4572.69" x2="-1884.91" y2="4572.69" gradientTransform="matrix(1.09, 0, 0, -0.46, 2137.85, 2102.52)" xlink:href="#linear-gradient"/><linearGradient id="linear-gradient-31" x1="-1909.5" y1="4489.62" x2="-1908.5" y2="4489.62" gradientTransform="matrix(1.1, 0, 0, -0.47, 2180.91, 2123.07)" xlink:href="#linear-gradient"/><linearGradient id="linear-gradient-32" x1="-1925.12" y1="4416.8" x2="-1924.12" y2="4416.8" gradientTransform="matrix(1.1, 0, 0, -0.48, 2209.93, 2142.1)" xlink:href="#linear-gradient"/><linearGradient id="linear-gradient-33" x1="-1937.75" y1="4352.34" x2="-1936.75" y2="4352.34" gradientTransform="matrix(1.11, 0, 0, -0.49, 2233.68, 2159.81)" xlink:href="#linear-gradient"/><linearGradient id="linear-gradient-34" x1="-1950.89" y1="4292.04" x2="-1949.89" y2="4292.04" gradientTransform="matrix(1.11, 0, 0, -0.5, 2258.6, 2177.14)" xlink:href="#linear-gradient"/><linearGradient id="linear-gradient-35" x1="-1966.06" y1="4227.96" x2="-1965.06" y2="4227.96" gradientTransform="matrix(1.12, 0, 0, -0.52, 2287.61, 2196.37)" xlink:href="#linear-gradient"/><linearGradient id="linear-gradient-36" x1="-1996.23" y1="4152.4" x2="-1995.23" y2="4152.4" gradientTransform="matrix(1.13, 0, 0, -0.53, 2345.86, 2220.17)" xlink:href="#linear-gradient"/><linearGradient id="linear-gradient-37" x1="-1996.23" y1="4132.85" x2="-1995.23" y2="4132.85" gradientTransform="matrix(1.13, 0, 0, -0.54, 2346.19, 2226.87)" xlink:href="#linear-gradient"/><linearGradient id="linear-gradient-38" x1="-2010.93" y1="4058.06" x2="-2009.93" y2="4058.06" gradientTransform="matrix(1.14, 0, 0, -0.55, 2375.18, 2252.19)" xlink:href="#linear-gradient"/><linearGradient id="linear-gradient-39" x1="-2020.45" y1="4004.89" x2="-2019.45" y2="4004.89" gradientTransform="matrix(1.14, 0, 0, -0.56, 2394.23, 2271.24)" xlink:href="#linear-gradient"/><linearGradient id="linear-gradient-40" x1="-2032.54" y1="3958.01" x2="-2031.54" y2="3958.01" gradientTransform="matrix(1.15, 0, 0, -0.57, 2418.53, 2288.78)" xlink:href="#linear-gradient"/><linearGradient id="linear-gradient-41" x1="-2044.53" y1="3916.84" x2="-2043.53" y2="3916.84" gradientTransform="matrix(1.15, 0, 0, -0.58, 2442.82, 2304.81)" xlink:href="#linear-gradient"/><linearGradient id="linear-gradient-42" x1="-2051.79" y1="3868.97" x2="-2050.79" y2="3868.97" gradientTransform="matrix(1.16, 0, 0, -0.6, 2457.76, 2324.06)" xlink:href="#linear-gradient"/><linearGradient id="linear-gradient-43" x1="-2073.06" y1="3823.46" x2="-2072.06" y2="3823.46" gradientTransform="matrix(1.16, 0, 0, -0.61, 2501.35, 2343.13)" xlink:href="#linear-gradient"/><linearGradient id="linear-gradient-44" x1="-2075.34" y1="3779.7" x2="-2074.34" y2="3779.7" gradientTransform="matrix(1.17, 0, 0, -0.62, 2506.33, 2362.2)" xlink:href="#linear-gradient"/><linearGradient id="linear-gradient-45" x1="-2086.68" y1="3747.77" x2="-2085.68" y2="3747.77" gradientTransform="matrix(1.17, 0, 0, -0.63, 2530.02, 2376.72)" xlink:href="#linear-gradient"/><linearGradient id="linear-gradient-46" x1="-2091.47" y1="3703.59" x2="-2090.47" y2="3703.59" gradientTransform="matrix(1.17, 0, 0, -0.64, 2540.26, 2397.31)" xlink:href="#linear-gradient"/><linearGradient id="linear-gradient-47" x1="-2105.19" y1="3663.9" x2="-2104.19" y2="3663.9" gradientTransform="matrix(1.18, 0, 0, -0.65, 2569.2, 2416.59)" xlink:href="#linear-gradient"/><linearGradient id="linear-gradient-48" x1="-2107.41" y1="3632.51" x2="-2106.41" y2="3632.51" gradientTransform="matrix(1.18, 0, 0, -0.66, 2574.16, 2432.44)" xlink:href="#linear-gradient"/><linearGradient id="linear-gradient-49" x1="-2118.76" y1="3604.63" x2="-2117.76" y2="3604.63" gradientTransform="matrix(1.18, 0, 0, -0.67, 2598.42, 2446.97)" xlink:href="#linear-gradient"/><linearGradient id="linear-gradient-50" x1="-2125.36" y1="3565.62" x2="-2124.36" y2="3565.62" gradientTransform="matrix(1.19, 0, 0, -0.69, 2612.73, 2467.77)" xlink:href="#linear-gradient"/><linearGradient id="linear-gradient-51" x1="-2127.83" y1="3536.72" x2="-2126.83" y2="3536.72" gradientTransform="matrix(1.19, 0, 0, -0.7, 2618.25, 2483.83)" xlink:href="#linear-gradient"/><linearGradient id="linear-gradient-52" x1="-2141.18" y1="3500.57" x2="-2140.18" y2="3500.57" gradientTransform="matrix(1.19, 0, 0, -0.71, 2647.18, 2504.44)" xlink:href="#linear-gradient"/><linearGradient id="linear-gradient-53" x1="-2143.34" y1="3470.56" x2="-2142.34" y2="3470.56" gradientTransform="matrix(1.19, 0, 0, -0.72, 2652.11, 2522.21)" xlink:href="#linear-gradient"/><linearGradient id="linear-gradient-54" x1="-2147.67" y1="3447.16" x2="-2146.67" y2="3447.16" gradientTransform="matrix(1.2, 0, 0, -0.73, 2661.72, 2536.57)" xlink:href="#linear-gradient"/><linearGradient id="linear-gradient-55" x1="-2150.09" y1="3419.08" x2="-2149.09" y2="3419.08" gradientTransform="matrix(1.2, 0, 0, -0.74, 2667.22, 2554.15)" xlink:href="#linear-gradient"/><linearGradient id="linear-gradient-56" x1="-2158.68" y1="3391.82" x2="-2157.68" y2="3391.82" gradientTransform="matrix(1.2, 0, 0, -0.75, 2686.18, 2571.74)" xlink:href="#linear-gradient"/><linearGradient id="linear-gradient-57" x1="-2161.09" y1="3363.03" x2="-2160.09" y2="3363.03" gradientTransform="matrix(1.2, 0, 0, -0.76, 2691.68, 2590.86)" xlink:href="#linear-gradient"/><linearGradient id="linear-gradient-58" x1="-2163.22" y1="3344.15" x2="-2162.22" y2="3344.15" gradientTransform="matrix(1.2, 0, 0, -0.77, 2696.58, 2603.89)" xlink:href="#linear-gradient"/><linearGradient id="linear-gradient-59" x1="-2165.35" y1="3323.44" x2="-2164.35" y2="3323.44" gradientTransform="matrix(1.2, 0, 0, -0.78, 2701.48, 2618.45)" xlink:href="#linear-gradient"/><linearGradient id="linear-gradient-60" x1="-2174.11" y1="3292.45" x2="-2173.11" y2="3292.45" gradientTransform="matrix(1.21, 0, 0, -0.79, 2721, 2640.61)" xlink:href="#linear-gradient"/><linearGradient id="linear-gradient-61" x1="-2154.39" y1="3268.49" x2="-2153.39" y2="3268.49" gradientTransform="matrix(1.2, 0, 0, -0.81, 2677.92, 2658.41)" xlink:href="#linear-gradient"/><linearGradient id="linear-gradient-62" x1="-2176.22" y1="3249.49" x2="-2175.22" y2="3249.49" gradientTransform="matrix(1.21, 0, 0, -0.81, 2726.1, 2672.98)" xlink:href="#linear-gradient"/><linearGradient id="linear-gradient-63" x1="-2176.22" y1="3229.16" x2="-2175.22" y2="3229.16" gradientTransform="matrix(1.21, 0, 0, -0.82, 2726.29, 2688.88)" xlink:href="#linear-gradient"/><linearGradient id="linear-gradient-64" x1="-2176.48" y1="3209.08" x2="-2175.48" y2="3209.08" gradientTransform="matrix(1.21, 0, 0, -0.83, 2727.07, 2704.97)" xlink:href="#linear-gradient"/><linearGradient id="linear-gradient-65" x1="-2180.43" y1="3187.58" x2="-2179.43" y2="3187.58" gradientTransform="matrix(1.21, 0, 0, -0.84, 2736.03, 2722.59)" xlink:href="#linear-gradient"/><linearGradient id="linear-gradient-66" x1="-2178.59" y1="3168.25" x2="-2177.59" y2="3168.25" gradientTransform="matrix(1.21, 0, 0, -0.86, 2732.12, 2738.88)" xlink:href="#linear-gradient"/><linearGradient id="linear-gradient-67" x1="-2180.7" y1="3148.02" x2="-2179.7" y2="3148.02" gradientTransform="matrix(1.21, 0, 0, -0.87, 2736.98, 2756.31)" xlink:href="#linear-gradient"/><linearGradient id="linear-gradient-68" x1="-2180.7" y1="3129.82" x2="-2179.7" y2="3129.82" gradientTransform="matrix(1.21, 0, 0, -0.88, 2737.15, 2772.42)" xlink:href="#linear-gradient"/><linearGradient id="linear-gradient-69" x1="-2176.48" y1="3110.33" x2="-2175.48" y2="3110.33" gradientTransform="matrix(1.21, 0, 0, -0.89, 2727.95, 2790.04)" xlink:href="#linear-gradient"/><linearGradient id="linear-gradient-70" x1="-2178.59" y1="3094.65" x2="-2177.59" y2="3094.65" gradientTransform="matrix(1.21, 0, 0, -0.9, 2732.79, 2804.64)" xlink:href="#linear-gradient"/><linearGradient id="linear-gradient-71" x1="-2176.22" y1="3077.86" x2="-2175.22" y2="3077.86" gradientTransform="matrix(1.21, 0, 0, -0.91, 2727.68, 2820.56)" xlink:href="#linear-gradient"/><linearGradient id="linear-gradient-72" x1="-2171.99" y1="3061.02" x2="-2170.99" y2="3061.02" gradientTransform="matrix(1.21, 0, 0, -0.92, 2718.46, 2836.87)" xlink:href="#linear-gradient"/><linearGradient id="linear-gradient-73" x1="-2169.87" y1="3044.95" x2="-2168.87" y2="3044.95" gradientTransform="matrix(1.21, 0, 0, -0.93, 2713.93, 2852.8)" xlink:href="#linear-gradient"/><linearGradient id="linear-gradient-74" x1="-2167.74" y1="3028.83" x2="-2166.74" y2="3028.83" gradientTransform="matrix(1.21, 0, 0, -0.94, 2709.39, 2869.11)" xlink:href="#linear-gradient"/><linearGradient id="linear-gradient-75" x1="-2165.62" y1="3007.06" x2="-2164.62" y2="3007.06" gradientTransform="matrix(1.21, 0, 0, -0.95, 2704.83, 2891.5)" xlink:href="#linear-gradient"/><linearGradient id="linear-gradient-76" x1="-2165.62" y1="3004.09" x2="-2164.62" y2="3004.09" gradientTransform="matrix(1.21, 0, 0, -0.95, 2704.96, 2895.09)" xlink:href="#linear-gradient"/><linearGradient id="linear-gradient-77" x1="-2161.09" y1="2981.6" x2="-2160.09" y2="2981.6" gradientTransform="matrix(1.2, 0, 0, -0.97, 2695.13, 2919.01)" xlink:href="#linear-gradient"/><linearGradient id="linear-gradient-78" x1="-2156.81" y1="2968.58" x2="-2155.81" y2="2968.58" gradientTransform="matrix(1.2, 0, 0, -0.98, 2685.89, 2933.44)" xlink:href="#linear-gradient"/><linearGradient id="linear-gradient-79" x1="-2154.39" y1="2958.4" x2="-2153.39" y2="2958.4" gradientTransform="matrix(1.2, 0, 0, -0.98, 2680.73, 2945.01)" xlink:href="#linear-gradient"/><linearGradient id="linear-gradient-80" x1="-2141.18" y1="2942.9" x2="-2140.18" y2="2942.9" gradientTransform="matrix(1.19, 0, 0, -0.99, 2652.16, 2962.67)" xlink:href="#linear-gradient"/><linearGradient id="linear-gradient-81" x1="-2141.18" y1="2929.07" x2="-2140.18" y2="2929.07" gradientTransform="matrix(1.19, 0, 0, -1, 2652.26, 2978.81)" xlink:href="#linear-gradient"/><linearGradient id="linear-gradient-82" x1="-2136.83" y1="2918.31" x2="-2135.83" y2="2918.31" gradientTransform="matrix(1.19, 0, 0, -1.01, 2642.98, 2991.73)" xlink:href="#linear-gradient"/><linearGradient id="linear-gradient-83" x1="-2130.29" y1="2903.67" x2="-2129.29" y2="2903.67" gradientTransform="matrix(1.19, 0, 0, -1.02, 2629.03, 3009.4)" xlink:href="#linear-gradient"/><linearGradient id="linear-gradient-84" x1="-2123.17" y1="2893.14" x2="-2122.17" y2="2893.14" gradientTransform="matrix(1.19, 0, 0, -1.03, 2613.89, 3022.51)" xlink:href="#linear-gradient"/><linearGradient id="linear-gradient-85" x1="-2116.56" y1="2879.04" x2="-2115.56" y2="2879.04" gradientTransform="matrix(1.18, 0, 0, -1.04, 2599.92, 3040.18)" xlink:href="#linear-gradient"/><linearGradient id="linear-gradient-86" x1="-2109.63" y1="2869.04" x2="-2108.63" y2="2869.04" gradientTransform="matrix(1.18, 0, 0, -1.05, 2585.36, 3053.1)" xlink:href="#linear-gradient"/><linearGradient id="linear-gradient-87" x1="-2098.49" y1="2857.69" x2="-2097.49" y2="2857.69" gradientTransform="matrix(1.18, 0, 0, -1.06, 2562.02, 3067.93)" xlink:href="#linear-gradient"/><linearGradient id="linear-gradient-88" x1="-2094" y1="2845.64" x2="-2093" y2="2845.64" gradientTransform="matrix(1.17, 0, 0, -1.07, 2552.71, 3083.9)" xlink:href="#linear-gradient"/><linearGradient id="linear-gradient-89" x1="-2086.68" y1="2833.68" x2="-2085.68" y2="2833.68" gradientTransform="matrix(1.17, 0, 0, -1.08, 2537.54, 3100.06)" xlink:href="#linear-gradient"/><linearGradient id="linear-gradient-90" x1="-2077.62" y1="2821.93" x2="-2076.62" y2="2821.93" gradientTransform="matrix(1.17, 0, 0, -1.09, 2518.86, 3116.23)" xlink:href="#linear-gradient"/><linearGradient id="linear-gradient-91" x1="-2070.49" y1="2818.39" x2="-2069.49" y2="2818.39" gradientTransform="matrix(1.16, 0, 0, -1.09, 2504.26, 3121.57)" xlink:href="#linear-gradient"/><linearGradient id="linear-gradient-92" x1="-2061.32" y1="2804.71" x2="-2060.32" y2="2804.71" gradientTransform="matrix(1.16, 0, 0, -1.1, 2485.57, 3140.77)" xlink:href="#linear-gradient"/><linearGradient id="linear-gradient-93" x1="-2046.86" y1="2791.32" x2="-2045.86" y2="2791.32" gradientTransform="matrix(1.15, 0, 0, -1.12, 2456.34, 3159.99)" xlink:href="#linear-gradient"/><linearGradient id="linear-gradient-94" x1="-2039.57" y1="2782.47" x2="-2038.57" y2="2782.47" gradientTransform="matrix(1.15, 0, 0, -1.12, 2441.72, 3173.12)" xlink:href="#linear-gradient"/><linearGradient id="linear-gradient-95" x1="-2027.83" y1="2775.98" x2="-2026.83" y2="2775.98" gradientTransform="matrix(1.15, 0, 0, -1.13, 2418.33, 3183.03)" xlink:href="#linear-gradient"/><linearGradient id="linear-gradient-96" x1="-2039.87" y1="2769.55" x2="-2038.87" y2="2769.55" gradientTransform="matrix(1.15, 0, 0, -1.14, 2442.31, 3192.94)" xlink:href="#linear-gradient"/><linearGradient id="linear-gradient-97" x1="-2068.2" y1="2755.88" x2="-2067.2" y2="2755.88" gradientTransform="matrix(1.16, 0, 0, -1.15, 2499.63, 3213.68)" xlink:href="#linear-gradient"/><linearGradient id="linear-gradient-98" x1="-2088.94" y1="2748.53" x2="-2087.94" y2="2748.53" gradientTransform="matrix(1.17, 0, 0, -1.16, 2542.31, 3225.3)" xlink:href="#linear-gradient"/><linearGradient id="linear-gradient-99" x1="-2107.41" y1="2739.41" x2="-2106.41" y2="2739.41" gradientTransform="matrix(1.18, 0, 0, -1.16, 2580.9, 3239.78)" xlink:href="#linear-gradient"/><linearGradient id="linear-gradient-100" x1="-2125.64" y1="2731.15" x2="-2124.64" y2="2731.15" gradientTransform="matrix(1.19, 0, 0, -1.17, 2619.47, 3253.12)" xlink:href="#linear-gradient"/><linearGradient id="linear-gradient-101" x1="-2141.18" y1="2721.33" x2="-2140.18" y2="2721.33" gradientTransform="matrix(1.19, 0, 0, -1.18, 2652.78, 3269.12)" xlink:href="#linear-gradient"/><linearGradient id="linear-gradient-102" x1="-2163.22" y1="2714.52" x2="-2162.22" y2="2714.52" gradientTransform="matrix(1.2, 0, 0, -1.19, 2700.7, 3280.56)" xlink:href="#linear-gradient"/><linearGradient id="linear-gradient-103" x1="-2178.33" y1="2705.79" x2="-2177.33" y2="2705.79" gradientTransform="matrix(1.21, 0, 0, -1.2, 2734, 3295.24)" xlink:href="#linear-gradient"/><linearGradient id="linear-gradient-104" x1="-2195.61" y1="2699.15" x2="-2194.61" y2="2699.15" gradientTransform="matrix(1.22, 0, 0, -1.21, 2772.55, 3306.69)" xlink:href="#linear-gradient"/><linearGradient id="linear-gradient-105" x1="-2214.71" y1="2690.65" x2="-2213.71" y2="2690.65" gradientTransform="matrix(1.23, 0, 0, -1.21, 2815.77, 3321.37)" xlink:href="#linear-gradient"/><linearGradient id="linear-gradient-106" x1="-2231.26" y1="2680.48" x2="-2230.26" y2="2680.48" gradientTransform="matrix(1.24, 0, 0, -1.23, 2853.72, 3339.09)" xlink:href="#linear-gradient"/><linearGradient id="linear-gradient-107" x1="-2245.84" y1="2678.58" x2="-2244.84" y2="2678.58" gradientTransform="matrix(1.24, 0, 0, -1.23, 2887.57, 3342.94)" xlink:href="#linear-gradient"/><linearGradient id="linear-gradient-108" x1="-2260.02" y1="2669.5" x2="-2259.02" y2="2669.5" gradientTransform="matrix(1.25, 0, 0, -1.24, 2920.83, 3359.15)" xlink:href="#linear-gradient"/><linearGradient id="linear-gradient-109" x1="-2287.9" y1="2661.54" x2="-2286.9" y2="2661.54" gradientTransform="matrix(1.26, 0, 0, -1.25, 2987.42, 3373.65)" xlink:href="#linear-gradient"/><linearGradient id="linear-gradient-110" x1="-2287.9" y1="2654.44" x2="-2286.9" y2="2654.44" gradientTransform="matrix(1.26, 0, 0, -1.26, 2987.33, 3386.82)" xlink:href="#linear-gradient"/><linearGradient id="linear-gradient-111" x1="-2309.49" y1="2648.39" x2="-2308.49" y2="2648.39" gradientTransform="matrix(1.27, 0, 0, -1.26, 3039.86, 3398.28)" xlink:href="#linear-gradient"/><linearGradient id="linear-gradient-112" x1="-2321.08" y1="2641.56" x2="-2320.08" y2="2641.56" gradientTransform="matrix(1.28, 0, 0, -1.27, 3068.41, 3411.27)" xlink:href="#linear-gradient"/><linearGradient id="linear-gradient-113" x1="-2334.67" y1="2634.71" x2="-2333.67" y2="2634.71" gradientTransform="matrix(1.29, 0, 0, -1.28, 3102.22, 3424.44)" xlink:href="#linear-gradient"/><linearGradient id="linear-gradient-114" x1="-2347.87" y1="2628.87" x2="-2346.87" y2="2628.87" gradientTransform="matrix(1.29, 0, 0, -1.28, 3135.43, 3435.91)" xlink:href="#linear-gradient"/><linearGradient id="linear-gradient-115" x1="-2362.99" y1="2621.28" x2="-2361.99" y2="2621.28" gradientTransform="matrix(1.3, 0, 0, -1.29, 3173.91, 3450.8)" xlink:href="#linear-gradient"/><linearGradient id="linear-gradient-116" x1="-2377.92" y1="2614.79" x2="-2376.92" y2="2614.79" gradientTransform="matrix(1.31, 0, 0, -1.3, 3212.37, 3463.8)" xlink:href="#linear-gradient"/><linearGradient id="linear-gradient-117" x1="-2390.67" y1="2610.73" x2="-2389.67" y2="2610.73" gradientTransform="matrix(1.32, 0, 0, -1.31, 3245.57, 3472.23)" xlink:href="#linear-gradient"/><linearGradient id="linear-gradient-118" x1="-2403.28" y1="2604.27" x2="-2402.28" y2="2604.27" gradientTransform="matrix(1.32, 0, 0, -1.32, 3278.75, 3485.42)" xlink:href="#linear-gradient"/><linearGradient id="linear-gradient-119" x1="-2414.02" y1="2597.98" x2="-2413.02" y2="2597.98" gradientTransform="matrix(1.33, 0, 0, -1.32, 3307.25, 3498.42)" xlink:href="#linear-gradient"/><linearGradient id="linear-gradient-120" x1="-2424.87" y1="2593.19" x2="-2423.87" y2="2593.19" gradientTransform="matrix(1.34, 0, 0, -1.33, 3336.33, 3508.57)" xlink:href="#linear-gradient"/><linearGradient id="linear-gradient-121" x1="-2440.55" y1="2587.79" x2="-2439.55" y2="2587.79" gradientTransform="matrix(1.35, 0, 0, -1.34, 3378.85, 3520.05)" xlink:href="#linear-gradient"/><linearGradient id="linear-gradient-122" x1="-2452.86" y1="2581.61" x2="-2451.86" y2="2581.61" gradientTransform="matrix(1.35, 0, 0, -1.34, 3412.59, 3533.24)" xlink:href="#linear-gradient"/><linearGradient id="linear-gradient-123" x1="-4758.66" y1="1755.88" x2="-4757.66" y2="1755.88" gradientTransform="matrix(93.6, 0, 0, -6.89, 445411.14, 12161.78)" xlink:href="#linear-gradient"/><linearGradient id="linear-gradient-124" x1="-2191.44" y1="3105.21" x2="-2190.44" y2="3105.21" gradientTransform="matrix(1.22, 0, 0, -0.89, 2760.82, 2827)" xlink:href="#linear-gradient"/><linearGradient id="linear-gradient-125" x1="-2193.52" y1="2965.58" x2="-2192.52" y2="2965.58" gradientTransform="matrix(1.22, 0, 0, -0.98, 2765.44, 2964.35)" xlink:href="#linear-gradient"/><linearGradient id="linear-gradient-126" x1="-2263.97" y1="2302.73" x2="-2262.97" y2="2302.73" gradientTransform="matrix(1.25, 0, 0, -1.85, 2927.96, 4315.28)" xlink:href="#linear-gradient"/><linearGradient id="linear-gradient-127" x1="-4487.42" y1="1579.69" x2="-4486.42" y2="1579.69" gradientTransform="matrix(10.38, 0, 0, -57.69, 46660.82, 91192.84)" gradientUnits="userSpaceOnUse"><stop offset="0" stop-color="#ff822e"/><stop offset="0.19" stop-color="#ff872a"/><stop offset="0.44" stop-color="#ff9821"/><stop offset="0.72" stop-color="#ffb312"/><stop offset="1" stop-color="#ffd500"/></linearGradient></defs><title>orange</title><g id="Layer_2" data-name="Layer 2"><g id="Layer_1-2" data-name="Layer 1"><g id="Group_720" data-name="Group 720"><g id="Group_688-2" data-name="Group 688-2"><path id="Path_7543-2" data-name="Path 7543-2" class="cls-1" d="M76.59,24.09l-65.5,58.7h0L102,89.44h0c.3-1,.38-1.27.45-1.52h0c3.86-13.8,2.9-26.68-1.91-37.71h0C95.91,39.49,87.62,30.53,76.59,24.09Z"/></g><path id="Path_7544-2" data-name="Path 7544-2" class="cls-2" d="M.9,59.84l93.6,5.64,7.54,24L11.1,82.79Z"/><g id="Group_689-2" data-name="Group 689-2"><path id="Path_7545-2" data-name="Path 7545-2" class="cls-3" d="M68.64.28,2.42,58.59.9,59.84,68.86,0Z"/><path id="Path_7546-2" data-name="Path 7546-2" class="cls-4" d="M68.64.28l.5.29L69.37.3,68.86,0Z"/><path id="Path_7547-2" data-name="Path 7547-2" class="cls-5" d="M69.15.56l.5.29.24-.26-.51-.3Z"/><path id="Path_7548-2" data-name="Path 7548-2" class="cls-6" d="M69.65.85l.49.3.27-.26-.52-.3Z"/><path id="Path_7549-2" data-name="Path 7549-2" class="cls-7" d="M70.14,1.15l.49.3.28-.25-.5-.3Z"/><path id="Path_7550-2" data-name="Path 7550-2" class="cls-8" d="M70.63,1.44l.49.3.3-.23-.5-.31Z"/><path id="Path_7551-2" data-name="Path 7551-2" class="cls-9" d="M71.12,1.74l.48.3.32-.22-.5-.31Z"/><path id="Path_7552-2" data-name="Path 7552-2" class="cls-10" d="M71.6,2.05l.48.3.34-.21-.5-.32Z"/><path id="Path_7553-2" data-name="Path 7553-2" class="cls-11" d="M72.08,2.35l.48.32L73,3l.37-.19-.49-.33-.5-.32Z"/><path id="Path_7554-2" data-name="Path 7554-2" class="cls-12" d="M73,3l.47.32.46.32.4-.18-.48-.33-.48-.33Z"/><path id="Path_7555-2" data-name="Path 7555-2" class="cls-13" d="M74,3.62l.46.33.46.33.45.33.45.34.46-.14-.46-.35-.47-.34-.47-.34-.48-.34Z"/><path id="Path_7556-2" data-name="Path 7556-2" class="cls-14" d="M75.78,4.94l.45.34.44.35.48-.12-.45-.36-.46-.35Z"/><path id="Path_7557-2" data-name="Path 7557-2" class="cls-15" d="M76.67,5.63,77.1,6l.44.35.51-.1-.45-.36-.45-.36Z"/><path id="Path_7558-2" data-name="Path 7558-2" class="cls-16" d="M77.54,6.33l.42.35.53-.09-.44-.36Z"/><path id="Path_7559-2" data-name="Path 7559-2" class="cls-17" d="M78,6.69a4.82,4.82,0,0,1,.43.36L78.93,7l-.44-.37Z"/><path id="Path_7560-2" data-name="Path 7560-2" class="cls-18" d="M78.39,7l.42.37.56-.08L78.93,7Z"/><path id="Path_7561-2" data-name="Path 7561-2" class="cls-19" d="M78.81,7.41l.41.36.57-.06-.42-.38Z"/><path id="Path_7562-2" data-name="Path 7562-2" class="cls-20" d="M79.22,7.77l.42.37.58-.06-.43-.37Z"/><path id="Path_7563-2" data-name="Path 7563-2" class="cls-21" d="M79.64,8.14l.4.37.6,0-.42-.39Z"/><path id="Path_7564-2" data-name="Path 7564-2" class="cls-22" d="M80,8.51l.4.38.61,0-.41-.39Z"/><path id="Path_7565-2" data-name="Path 7565-2" class="cls-23" d="M80.45,8.89l.4.38.62,0-.41-.39Z"/><path id="Path_7566-2" data-name="Path 7566-2" class="cls-24" d="M80.84,9.27l.4.38.64,0-.41-.39Z"/><path id="Path_7567-2" data-name="Path 7567-2" class="cls-25" d="M81.24,9.65l.39.39h.65l-.4-.4Z"/><path id="Path_7568-2" data-name="Path 7568-2" class="cls-26" d="M81.63,10l.38.39h.66l-.4-.4Z"/><path id="Path_7569-2" data-name="Path 7569-2" class="cls-27" d="M82,10.43l.39.39h.67c-.13-.13-.26-.27-.4-.4Z"/><path id="Path_7570-2" data-name="Path 7570-2" class="cls-28" d="M82.4,10.82c.12.14.25.27.37.4l.69,0-.39-.4Z"/><path id="Path_7571-2" data-name="Path 7571-2" class="cls-29" d="M82.77,11.22l.38.4.7,0-.39-.41Z"/><path id="Path_7572-2" data-name="Path 7572-2" class="cls-30" d="M83.14,11.62l.37.41.71,0-.38-.42Z"/><path id="Path_7573-2" data-name="Path 7573-2" class="cls-31" d="M83.51,12l.37.4.72,0c-.13-.14-.25-.28-.38-.41Z"/><path id="Path_7574-2" data-name="Path 7574-2" class="cls-32" d="M83.88,12.44l.36.41.73,0-.37-.42Z"/><path id="Path_7575-2" data-name="Path 7575-2" class="cls-33" d="M84.24,12.85l.35.41.74.06L85,12.89Z"/><path id="Path_7576-2" data-name="Path 7576-2" class="cls-34" d="M84.59,13.26l.35.42.75.06-.36-.43Z"/><path id="Path_7577-2" data-name="Path 7577-2" class="cls-35" d="M84.94,13.68l.35.42.76.07-.36-.43Z"/><path id="Path_7578-2" data-name="Path 7578-2" class="cls-36" d="M85.29,14.1l.34.42.77.08-.35-.43Z"/><path id="Path_7579-2" data-name="Path 7579-2" class="cls-37" d="M85.63,14.52,86,15l.79.09-.35-.44Z"/><path id="Path_7580-2" data-name="Path 7580-2" class="cls-38" d="M86,15l.33.43.8.1L86.75,15Z"/><path id="Path_7581-2" data-name="Path 7581-2" class="cls-39" d="M86.29,15.39l.33.43.8.1-.33-.44Z"/><path id="Path_7582-2" data-name="Path 7582-2" class="cls-40" d="M86.62,15.82c.11.14.21.29.32.44l.82.11-.33-.45Z"/><path id="Path_7583-2" data-name="Path 7583-2" class="cls-41" d="M86.94,16.25c.11.15.21.3.32.44l.82.13-.32-.45Z"/><path id="Path_7584-2" data-name="Path 7584-2" class="cls-42" d="M87.26,16.7l.31.44.83.13-.32-.45Z"/><path id="Path_7585-2" data-name="Path 7585-2" class="cls-43" d="M87.57,17.14l.31.45.84.13-.32-.45Z"/><path id="Path_7586-2" data-name="Path 7586-2" class="cls-44" d="M87.88,17.59l.3.45.85.14-.31-.45Z"/><path id="Path_7587-2" data-name="Path 7587-2" class="cls-45" d="M88.18,18l.3.45.86.16-.3-.47Z"/><path id="Path_7588-2" data-name="Path 7588-2" class="cls-46" d="M88.48,18.49c.1.16.2.3.29.46l.87.16-.3-.46Z"/><path id="Path_7589-2" data-name="Path 7589-2" class="cls-47" d="M88.77,19l.29.46.88.17-.3-.47Z"/><path id="Path_7590-2" data-name="Path 7590-2" class="cls-48" d="M89.06,19.41l.28.47.89.17c-.1-.15-.19-.31-.29-.47Z"/><path id="Path_7591-2" data-name="Path 7591-2" class="cls-49" d="M89.34,19.88c.09.15.18.31.28.46l.9.19-.29-.48Z"/><path id="Path_7592-2" data-name="Path 7592-2" class="cls-50" d="M89.62,20.34l.27.47.9.2c-.09-.16-.18-.32-.28-.48Z"/><path id="Path_7593-2" data-name="Path 7593-2" class="cls-51" d="M89.89,20.81l.27.48.91.19L90.8,21Z"/><path id="Path_7594-2" data-name="Path 7594-2" class="cls-52" d="M90.16,21.28c.08.16.17.32.26.48l.92.21-.27-.48Z"/><path id="Path_7595-2" data-name="Path 7595-2" class="cls-53" d="M90.42,21.76l.25.48.94.22L91.34,22Z"/><path id="Path_7596-2" data-name="Path 7596-2" class="cls-54" d="M90.67,22.24l.26.48.94.23-.26-.49Z"/><path id="Path_7597-2" data-name="Path 7597-2" class="cls-55" d="M90.93,22.72l.24.49,1,.23L91.87,23Z"/><path id="Path_7598-2" data-name="Path 7598-2" class="cls-56" d="M91.17,23.21c.08.16.17.32.25.49l1,.24c-.08-.17-.16-.33-.25-.5Z"/><path id="Path_7599-2" data-name="Path 7599-2" class="cls-57" d="M91.42,23.7c.08.16.15.33.23.49l1,.25-.24-.5Z"/><path id="Path_7600-2" data-name="Path 7600-2" class="cls-58" d="M91.65,24.19c.08.16.16.33.23.5l1,.25c-.08-.17-.15-.33-.24-.5Z"/><path id="Path_7601-2" data-name="Path 7601-2" class="cls-59" d="M91.88,24.69l.23.5,1,.26c-.07-.17-.15-.33-.23-.5Z"/><path id="Path_7602-2" data-name="Path 7602-2" class="cls-60" d="M92.11,25.18c.07.17.14.34.22.5l1,.27-.23-.5Z"/><path id="Path_7603-2" data-name="Path 7603-2" class="cls-61" d="M92.33,25.68l.21.5,1,.28c-.07-.17-.14-.34-.22-.51Z"/><path id="Path_7604-2" data-name="Path 7604-2" class="cls-62" d="M92.54,26.19l.21.5,1,.29-.22-.51Z"/><path id="Path_7605-2" data-name="Path 7605-2" class="cls-63" d="M92.75,26.7c.07.17.14.34.2.51l1,.29L93.74,27Z"/><path id="Path_7606-2" data-name="Path 7606-2" class="cls-64" d="M93,27.2l.2.52,1,.3c-.07-.18-.14-.35-.2-.52Z"/><path id="Path_7607-2" data-name="Path 7607-2" class="cls-65" d="M93.15,27.72l.2.51,1,.31c-.06-.17-.13-.35-.2-.52Z"/><path id="Path_7608-2" data-name="Path 7608-2" class="cls-66" d="M93.35,28.23c.06.18.13.35.18.52l1,.32-.2-.53Z"/><path id="Path_7609-2" data-name="Path 7609-2" class="cls-67" d="M93.53,28.75c.07.18.13.35.19.53l1,.32c-.07-.18-.13-.36-.19-.53Z"/><path id="Path_7610-2" data-name="Path 7610-2" class="cls-68" d="M93.71,29.28l.18.52,1,.33c-.06-.18-.12-.35-.19-.53Z"/><path id="Path_7611-2" data-name="Path 7611-2" class="cls-69" d="M93.89,29.8c.06.17.12.35.17.53l1,.33c0-.17-.11-.35-.17-.53Z"/><path id="Path_7612-2" data-name="Path 7612-2" class="cls-70" d="M94.06,30.33c.06.17.11.35.17.53l1,.34-.18-.53Z"/><path id="Path_7613-2" data-name="Path 7613-2" class="cls-71" d="M94.23,30.86l.15.53,1.06.35c-.06-.18-.11-.36-.17-.54Z"/><path id="Path_7614-2" data-name="Path 7614-2" class="cls-72" d="M94.39,31.39l.15.54,1.06.36-.16-.55Z"/><path id="Path_7615-2" data-name="Path 7615-2" class="cls-73" d="M94.54,31.93l.15.54,1.06.36-.15-.54Z"/><path id="Path_7616-2" data-name="Path 7616-2" class="cls-74" d="M94.68,32.46l.15.55,1.06.37c0-.18-.1-.37-.14-.55Z"/><path id="Path_7617-2" data-name="Path 7617-2" class="cls-75" d="M94.83,33c0,.18.09.36.14.54l1.07.38c-.05-.18-.1-.37-.14-.55Z"/><path id="Path_7618-2" data-name="Path 7618-2" class="cls-76" d="M95,33.55c0,.18.08.37.13.55l1.07.39c0-.19-.09-.37-.13-.56Z"/><path id="Path_7619-2" data-name="Path 7619-2" class="cls-77" d="M95.09,34.1c0,.18.09.36.13.55l1.08.4c0-.19-.09-.37-.13-.56Z"/><path id="Path_7620-2" data-name="Path 7620-2" class="cls-78" d="M95.22,34.65l.12.55,1.09.4c0-.19-.09-.37-.13-.56Z"/><path id="Path_7621-2" data-name="Path 7621-2" class="cls-79" d="M95.34,35.2c0,.19.08.37.11.56l1.09.41c0-.19-.08-.38-.11-.56Z"/><path id="Path_7622-2" data-name="Path 7622-2" class="cls-80" d="M95.46,35.76c0,.18.07.37.1.56l1.1.41c0-.19-.08-.38-.11-.56Z"/><path id="Path_7623-2" data-name="Path 7623-2" class="cls-81" d="M95.56,36.32c0,.18.07.37.1.56l1.1.42c0-.19-.07-.38-.1-.57Z"/><path id="Path_7624-2" data-name="Path 7624-2" class="cls-82" d="M95.66,36.88l.09.56,1.1.43c0-.19-.06-.38-.1-.57Z"/><path id="Path_7625-2" data-name="Path 7625-2" class="cls-83" d="M95.75,37.44l.09.57,1.11.43-.09-.57Z"/><path id="Path_7626-2" data-name="Path 7626-2" class="cls-84" d="M95.84,38c0,.19.06.37.08.56L97,39c0-.19,0-.38-.08-.58Z"/><path id="Path_7627-2" data-name="Path 7627-2" class="cls-85" d="M95.92,38.57c0,.19.06.38.08.58l1.11.45c0-.2,0-.39-.08-.58Z"/><path id="Path_7628-2" data-name="Path 7628-2" class="cls-86" d="M96,39.15c0,.19,0,.38.07.57l1.12.46c0-.2,0-.39-.08-.58Z"/><path id="Path_7629-2" data-name="Path 7629-2" class="cls-87" d="M96.07,39.72l.06.58,1.12.46-.06-.58Z"/><path id="Path_7630-2" data-name="Path 7630-2" class="cls-88" d="M96.13,40.3l.06.58,1.12.47-.06-.59Z"/><path id="Path_7631-2" data-name="Path 7631-2" class="cls-89" d="M96.19,40.88c0,.19,0,.38,0,.58l1.13.48c0-.21,0-.4-.06-.59Z"/><path id="Path_7632-2" data-name="Path 7632-2" class="cls-90" d="M96.24,41.46c0,.2,0,.39.05.58l1.13.49c0-.2,0-.4,0-.59Z"/><path id="Path_7633-2" data-name="Path 7633-2" class="cls-91" d="M96.29,42c0,.2,0,.39,0,.59l1.13.49c0-.2,0-.4,0-.59Z"/><path id="Path_7634-2" data-name="Path 7634-2" class="cls-92" d="M96.32,42.63c0,.2,0,.39,0,.59l1.13.5,0-.6Z"/><path id="Path_7635-2" data-name="Path 7635-2" class="cls-93" d="M96.36,43.22c0,.19,0,.39,0,.59l1.14.5,0-.6Z"/><path id="Path_7636-2" data-name="Path 7636-2" class="cls-94" d="M96.38,43.81c0,.2,0,.4,0,.59l1.14.51c0-.2,0-.4,0-.6Z"/><path id="Path_7637-2" data-name="Path 7637-2" class="cls-95" d="M96.4,44.4c0,.2,0,.4,0,.6l1.15.52c0-.2,0-.4,0-.6Z"/><path id="Path_7638-2" data-name="Path 7638-2" class="cls-96" d="M96.41,45c0,.2,0,.4,0,.6l1.14.52v-.6Z"/><path id="Path_7639-2" data-name="Path 7639-2" class="cls-97" d="M96.42,45.6v.6l1.15.53v-.61Z"/><path id="Path_7640-2" data-name="Path 7640-2" class="cls-98" d="M96.42,46.2c0,.2,0,.4,0,.6l1.15.53v-.61Z"/><path id="Path_7641-2" data-name="Path 7641-2" class="cls-99" d="M96.41,46.8c0,.2,0,.4,0,.61l1.15.54c0-.2,0-.41,0-.61Z"/><path id="Path_7642-2" data-name="Path 7642-2" class="cls-100" d="M96.4,47.41c0,.2,0,.4,0,.61l1.15.54c0-.2,0-.41,0-.61Z"/><path id="Path_7643-2" data-name="Path 7643-2" class="cls-101" d="M96.38,48l0,.61,1.16.55c0-.2,0-.41,0-.62Z"/><path id="Path_7644-2" data-name="Path 7644-2" class="cls-102" d="M96.35,48.63l0,.61,1.15.56c0-.21,0-.41,0-.62Z"/><path id="Path_7645-2" data-name="Path 7645-2" class="cls-103" d="M96.32,49.24c0,.2,0,.41,0,.61l1.15.57c0-.21,0-.41,0-.62Z"/><path id="Path_7646-2" data-name="Path 7646-2" class="cls-104" d="M96.28,49.85c0,.21,0,.42,0,.62l1.16.57c0-.2,0-.41,0-.62Z"/><path id="Path_7647-2" data-name="Path 7647-2" class="cls-105" d="M96.23,50.47c0,.21,0,.41,0,.62l1.15.58.06-.62Z"/><path id="Path_7648-2" data-name="Path 7648-2" class="cls-106" d="M96.18,51.09l-.06.62,1.16.59c0-.21,0-.42,0-.63Z"/><path id="Path_7649-2" data-name="Path 7649-2" class="cls-107" d="M96.12,51.71c0,.21-.05.42-.07.63l1.16.59c0-.21,0-.42.07-.63Z"/><path id="Path_7650-2" data-name="Path 7650-2" class="cls-108" d="M96.05,52.34c0,.2,0,.41-.08.62l1.16.6c0-.21.06-.42.08-.63Z"/><path id="Path_7651-2" data-name="Path 7651-2" class="cls-109" d="M96,53c0,.21,0,.42-.08.63l1.16.6c0-.21.06-.42.08-.63Z"/><path id="Path_7652-2" data-name="Path 7652-2" class="cls-110" d="M95.89,53.59l-.09.63,1.17.61c0-.21.06-.42.08-.64Z"/><path id="Path_7653-2" data-name="Path 7653-2" class="cls-111" d="M95.8,54.22c0,.21-.06.42-.1.63l1.17.62c0-.22.06-.43.1-.64Z"/><path id="Path_7654-2" data-name="Path 7654-2" class="cls-112" d="M95.71,54.85c0,.21-.07.42-.1.64l1.16.62c0-.22.07-.43.1-.64Z"/><path id="Path_7655-2" data-name="Path 7655-2" class="cls-113" d="M95.6,55.49c0,.21-.07.42-.11.63l1.17.63c0-.22.07-.43.11-.64Z"/><path id="Path_7656-2" data-name="Path 7656-2" class="cls-114" d="M95.49,56.12c0,.22-.07.43-.11.64l1.16.63.12-.64Z"/><path id="Path_7657-2" data-name="Path 7657-2" class="cls-115" d="M95.38,56.76c0,.21-.08.43-.13.64l1.17.64.12-.65Z"/><path id="Path_7658-2" data-name="Path 7658-2" class="cls-116" d="M95.25,57.4c0,.21-.08.43-.13.64l1.17.64c0-.21.08-.43.13-.64Z"/><path id="Path_7659-2" data-name="Path 7659-2" class="cls-117" d="M95.12,58c0,.22-.09.43-.14.65l1.17.65c0-.22.09-.43.14-.65Z"/><path id="Path_7660-2" data-name="Path 7660-2" class="cls-118" d="M95,58.69c0,.21-.09.43-.14.64L96,60l.15-.65Z"/><path id="Path_7661-2" data-name="Path 7661-2" class="cls-119" d="M94.84,59.33c0,.22-.1.44-.16.65l1.17.66L96,60Z"/><path id="Path_7662-2" data-name="Path 7662-2" class="cls-120" d="M94.68,60c-.05.22-.1.43-.16.65l1.17.67c0-.22.11-.44.16-.66Z"/><path id="Path_7663-2" data-name="Path 7663-2" class="cls-121" d="M94.52,60.63c0,.22-.11.44-.16.65l1.16.68c.06-.22.11-.44.17-.66Z"/><path id="Path_7664-2" data-name="Path 7664-2" class="cls-122" d="M94.36,61.29l-.18.65,1.16.67.18-.65Z"/><path id="Path_7665-2" data-name="Path 7665-2" class="cls-123" d="M94.18,61.94l-.18.65,1.16.68.18-.66Z"/><path id="Path_7666-2" data-name="Path 7666-2" class="cls-124" d="M94,62.59c-.06.22-.13.44-.19.66l1.16.69c.06-.22.13-.44.19-.66Z"/><path id="Path_7667-2" data-name="Path 7667-2" class="cls-125" d="M2.42,58.59,93.57,64l.92,1.47L.89,59.84Z"/><path id="Path_7668-2" data-name="Path 7668-2" class="cls-126" d="M93.81,63.25l-.06.19,1.16.7c0-.08,0-.14.06-.2Z"/><path id="Path_7669-2" data-name="Path 7669-2" class="cls-127" d="M93.75,63.44l-.06.19,1.13.79c0-.11.06-.2.09-.28Z"/><path id="Path_7670-2" data-name="Path 7670-2" class="cls-128" d="M93.69,63.63l-.06.19-.06.19.92,1.47.2-.64c.06-.17.1-.31.13-.42Z"/></g><path id="Path_7671-2" data-name="Path 7671-2" class="cls-129" d="M68.64.28,2.42,58.59h0L93.57,64h0l.24-.76h0C97.89,49.4,97,36.56,92.33,25.69h0C87.75,15.12,79.54,6.39,68.64.28Z"/><path id="Path_7672-2" data-name="Path 7672-2" class="cls-130" d="M104.86,70.28c0-.2,0-.4,0-.6s0-.4,0-.6l0-.6,0-.59c0-.19,0-.4,0-.59s0-.39,0-.59l-.06-.59c0-.19,0-.39,0-.58l-.06-.58c0-.2,0-.39-.08-.58s0-.39-.07-.58-.05-.38-.08-.58l-.09-.57-.09-.57c0-.19-.07-.38-.1-.57s-.07-.37-.11-.56-.07-.38-.11-.56l-.12-.56-.12-.56c0-.18-.09-.37-.13-.55l-.14-.56c0-.18-.09-.36-.14-.55l-.15-.54c0-.18-.1-.37-.15-.55s-.1-.36-.16-.54L95.44,31.74c0,.18.1.36.16.54l.15.55.15.55c0,.18.09.36.14.55s.09.37.13.55.09.37.13.56l.12.56.12.56c0,.19.08.38.11.57s.07.38.1.56.07.38.1.58a5.62,5.62,0,0,1,.09.57L97,39c0,.19,0,.39.08.58s0,.39.07.58,0,.39.07.59l.06.58c0,.2,0,.39,0,.59s0,.39,0,.59,0,.4,0,.6,0,.4,0,.59l0,.6c0,.2,0,.4,0,.6s0,.4,0,.6,0,.4,0,.6v1.22c0,.21,0,.41,0,.61s0,.41,0,.62l0,.62,0,.61c0,.21,0,.42,0,.63s0,.41,0,.62l-.06.62c0,.21,0,.42-.06.63l-.06.63c0,.21,0,.42-.08.63s0,.42-.08.64,0,.42-.09.63-.06.43-.1.64-.06.43-.1.64-.07.43-.11.64-.07.43-.11.65-.08.43-.13.64-.08.43-.13.65-.09.43-.14.65-.1.43-.14.65-.1.44-.16.65-.1.44-.16.66-.11.44-.16.66l-.18.66-.18.66c-.06.22-.13.44-.19.66l-.06.2s-.06.17-.09.28-.08.25-.13.42-.12.38-.2.64l7.54,24,.18-.63c.06-.17.1-.31.13-.42l.08-.27.06-.2.18-.66c.06-.21.11-.43.17-.65s.11-.43.16-.65.11-.43.16-.65.1-.43.15-.65l.15-.64c0-.22.09-.43.14-.65l.12-.64c.05-.21.09-.43.13-.64s.08-.43.11-.64.08-.42.11-.64.07-.42.1-.63.06-.42.1-.64,0-.42.08-.63.06-.42.08-.63,0-.41.08-.62l.06-.63c0-.21,0-.42.06-.62l.06-.63c0-.2,0-.41,0-.62s0-.41,0-.61,0-.41,0-.62,0-.41,0-.61,0-.41,0-.61,0-.41,0-.61v-.61c0-.21,0-.4,0-.61Z"/></g></g></g></svg>