<svg xmlns="http://www.w3.org/2000/svg" xmlns:xlink="http://www.w3.org/1999/xlink" viewBox="0 0 268.22 165.07"><defs><style>.cls-1,.cls-2,.cls-3{fill:#b2267c;}.cls-2,.cls-3{stroke:#ff388a;stroke-width:1.13px;}.cls-3,.cls-74{opacity:0.9;isolation:isolate;}.cls-4{fill:#284830;}.cls-5{fill:#274730;}.cls-6{fill:#27462f;}.cls-7{fill:#27452e;}.cls-8{fill:#26452e;}.cls-9{fill:#26442e;}.cls-10{fill:#25432d;}.cls-11{fill:#25422c;}.cls-12{fill:#24412b;}.cls-13{fill:#23402b;}.cls-14{fill:#223f2a;}.cls-15{fill:#223e29;}.cls-16{fill:#213e29;}.cls-17{fill:#213d29;}.cls-18{fill:#213d28;}.cls-19{fill:#213c28;}.cls-20{fill:#203b27;}.cls-21{fill:#203b26;}.cls-22{fill:#1f3a26;}.cls-23{fill:#1f3926;}.cls-24{fill:#1f3925;}.cls-25{fill:#1f3825;}.cls-26{fill:#1e3824;}.cls-27{fill:#1d3724;}.cls-28{fill:#1c3623;}.cls-29{fill:#31563a;}.cls-30{fill:#32583c;}.cls-31{fill:#335b3e;}.cls-32{fill:#365e40;}.cls-33{fill:#376142;}.cls-34{fill:#386444;}.cls-35{fill:#396545;}.cls-36{fill:#3a6746;}.cls-37{fill:#3b6847;}.cls-38{fill:#3c6a49;}.cls-39{fill:#3d6c4a;}.cls-40{fill:#3e6e4b;}.cls-41{fill:#3f704c;}.cls-42{fill:#40724d;}.cls-43{fill:#41734f;}.cls-44{fill:#427550;}.cls-45{fill:#437751;}.cls-46{fill:#284831;}.cls-47{fill:#294931;}.cls-48{fill:#2a4a32;}.cls-49{fill:#2a4b32;}.cls-50{fill:#2a4b33;}.cls-51{fill:#2b4c33;}.cls-52{fill:#2b4d34;}.cls-53{fill:#2c4d34;}.cls-54{fill:#2c4e35;}.cls-55{fill:#2c4f36;}.cls-56{fill:#2d4f36;}.cls-57{fill:#2d5036;}.cls-58{fill:#2d5137;}.cls-59{fill:#2e5237;}.cls-60{fill:#2f5238;}.cls-61{fill:#2f5338;}.cls-62{fill:#305439;}.cls-63{fill:#30553a;}.cls-64{fill:#31573b;}.cls-65{fill:#32593d;}.cls-66{fill:#335b3d;}.cls-67{fill:#345c3f;}.cls-68{fill:#366041;}.cls-69{fill:#386344;}.cls-70{fill:#3c6b49;}.cls-71{fill:#3f714d;}.cls-72{fill:#ff388a;}.cls-73{fill:#ffdbc2;}.cls-74{fill:url(#linear-gradient);}</style><linearGradient id="linear-gradient" x1="-4900.75" y1="2020.44" x2="-4901.75" y2="2020.44" gradientTransform="matrix(248.02, 0, 0, -120.7, 1215755.7, 243921.81)" gradientUnits="userSpaceOnUse"><stop offset="0" stop-color="#ff388a"/><stop offset="1" stop-color="#b2267c"/></linearGradient></defs><title>purple</title><g id="Layer_2" data-name="Layer 2"><g id="Layer_1-2" data-name="Layer 1"><g id="Group_721" data-name="Group 721"><path id="Path_7222-2" data-name="Path 7222-2" class="cls-1" d="M.66,61C20.57,49.28,44.35,42.65,71.34,42h0c66.59-1.63,136.88,34.16,174.2,86.35h0L116.33,164.13h0Z"/><path id="Path_7223-2" data-name="Path 7223-2" class="cls-2" d="M267.09,88.85,135,123.29l-18.62,40.84,129.22-35.79Z"/><path id="Path_7224-2" data-name="Path 7224-2" class="cls-3" d="M135,123.3,14.94,18.19.66,61,116.33,164.13Z"/><path id="Path_7225-2" data-name="Path 7225-2" class="cls-4" d="M88.21,0H89l-.86,0h-.82Z"/><path id="Path_7226-2" data-name="Path 7226-2" class="cls-5" d="M89,0h2.44l-.85,0H88.16Z"/><path id="Path_7227-2" data-name="Path 7227-2" class="cls-6" d="M91.46,0h-.85Z"/><path id="Path_7228-2" data-name="Path 7228-2" class="cls-6" d="M93.08,0l.81,0-.83,0h0Z"/><path id="Path_7229-2" data-name="Path 7229-2" class="cls-7" d="M93.89.05h.81l.82,0,.81,0-.82,0-.81,0-.82,0-.82,0Z"/><path id="Path_7230-2" data-name="Path 7230-2" class="cls-8" d="M96.33.11l.81,0,.81,0h-.8l-.82,0-.82,0Z"/><path id="Path_7231-2" data-name="Path 7231-2" class="cls-9" d="M98,.16l.81,0-.8,0-.82,0Z"/><path id="Path_7232-2" data-name="Path 7232-2" class="cls-9" d="M98.76.2l.81,0,.81,0H99.6l-.82,0L98,.18Z"/><path id="Path_7233-2" data-name="Path 7233-2" class="cls-10" d="M100.38.27l.81,0,.81,0,.81,0H102l-.81-.05-.82,0-.81,0Z"/><path id="Path_7234-2" data-name="Path 7234-2" class="cls-11" d="M102.81.41l.81.06.81.05h-.76l-.81-.06L102,.4Z"/><path id="Path_7235-2" data-name="Path 7235-2" class="cls-11" d="M104.43.52l.8.06h-.74l-.82-.06Z"/><path id="Path_7236-2" data-name="Path 7236-2" class="cls-11" d="M105.24.58l.81.06.81.07h-.74L105.3.63l-.81-.06Z"/><path id="Path_7237-2" data-name="Path 7237-2" class="cls-12" d="M106.85.71l.81.07.81.07.8.08h-.72l-.81-.08-.81-.07-.82-.07Z"/><path id="Path_7238-2" data-name="Path 7238-2" class="cls-13" d="M109.27.93l.81.08h-.71l-.82-.08Z"/><path id="Path_7239-2" data-name="Path 7239-2" class="cls-13" d="M110.08,1l.81.08h-.71L109.37,1Z"/><path id="Path_7240-2" data-name="Path 7240-2" class="cls-13" d="M110.89,1.09l.8.08H111l-.81-.08Z"/><path id="Path_7241-2" data-name="Path 7241-2" class="cls-14" d="M111.69,1.17l.81.09.8.09h-.69l-.81-.09L111,1.17Z"/><path id="Path_7242-2" data-name="Path 7242-2" class="cls-14" d="M113.3,1.35l.8.1.8.1.8.1H115l-.81-.1-.81-.1-.81-.1Z"/><path id="Path_7243-2" data-name="Path 7243-2" class="cls-15" d="M115.71,1.65l.8.1.8.1h-.65l-.81-.11-.81-.1Z"/><path id="Path_7244-2" data-name="Path 7244-2" class="cls-16" d="M117.32,1.86l.8.11h-.65l-.81-.11Z"/><path id="Path_7245-2" data-name="Path 7245-2" class="cls-17" d="M118.12,2l.8.11.8.12h-.63l-.81-.11L117.47,2Z"/><path id="Path_7246-2" data-name="Path 7246-2" class="cls-18" d="M119.73,2.2l.8.11.8.13h-.63l-.8-.12-.81-.12Z"/><path id="Path_7247-2" data-name="Path 7247-2" class="cls-18" d="M121.33,2.44l.8.12-.62,0-.8-.13Z"/><path id="Path_7248-2" data-name="Path 7248-2" class="cls-19" d="M122.13,2.56l.8.13.8.13-.6,0-.81-.13-.8-.13Z"/><path id="Path_7249-2" data-name="Path 7249-2" class="cls-20" d="M123.73,2.82l.8.14.8.14.8.14-.58,0-.8-.14L123.94,3l-.8-.14Z"/><path id="Path_7250-2" data-name="Path 7250-2" class="cls-21" d="M126.12,3.24l.8.14.8.14.8.15-.56,0-.8-.15-.8-.15-.8-.15Z"/><path id="Path_7251-2" data-name="Path 7251-2" class="cls-22" d="M128.51,3.67l.8.16-.56,0-.8-.15Z"/><path id="Path_7252-2" data-name="Path 7252-2" class="cls-22" d="M129.31,3.83l.8.15-.55,0-.8-.16Z"/><path id="Path_7253-2" data-name="Path 7253-2" class="cls-23" d="M130.11,4l.79.16.79.16-.53,0-.8-.16-.8-.16Z"/><path id="Path_7254-2" data-name="Path 7254-2" class="cls-24" d="M131.7,4.3l.79.17-.53,0-.8-.16Z"/><path id="Path_7255-2" data-name="Path 7255-2" class="cls-25" d="M132.49,4.47l.79.16.79.17-.51,0-.8-.17-.8-.17Z"/><path id="Path_7256-2" data-name="Path 7256-2" class="cls-26" d="M134.07,4.8l.79.17.8.18-.5,0-.8-.17-.8-.18Z"/><path id="Path_7257-2" data-name="Path 7257-2" class="cls-26" d="M135.65,5.15l.79.18-.49.06-.8-.18Z"/><path id="Path_7258-2" data-name="Path 7258-2" class="cls-27" d="M136.44,5.33l.79.18.79.19-.48.06-.8-.19-.8-.18Z"/><path id="Path_7259-2" data-name="Path 7259-2" class="cls-27" d="M138,5.7l.79.18.79.19.78.2-.45.07-.8-.2-.79-.2-.8-.19Z"/><path id="Path_7260-2" data-name="Path 7260-2" class="cls-28" d="M140.38,6.27l.79.2-.45.07-.79-.2Z"/><path id="Path_7261-2" data-name="Path 7261-2" class="cls-29" d="M254.9,73.83l1,1.16,1.24,1.54-1.05-1.19Z"/><path id="Path_7262-2" data-name="Path 7262-2" class="cls-30" d="M255.93,75l1,1.17,1.27,1.57-1-1.2Z"/><path id="Path_7263-2" data-name="Path 7263-2" class="cls-31" d="M256.94,76.16l1,1.17,1.29,1.6c-.34-.4-.69-.8-1-1.21Z"/><path id="Path_7264-2" data-name="Path 7264-2" class="cls-32" d="M258,77.33c.33.39.66.79,1,1.18l1.32,1.64-1-1.22Z"/><path id="Path_7265-2" data-name="Path 7265-2" class="cls-33" d="M258.94,78.51l1,1.19,1.34,1.67c-.34-.41-.67-.82-1-1.22Z"/><path id="Path_7266-2" data-name="Path 7266-2" class="cls-34" d="M259.93,79.7l.48.6L261.77,82l-.5-.61Z"/><path id="Path_7267-2" data-name="Path 7267-2" class="cls-35" d="M260.41,80.29l.49.6,1.37,1.7-.5-.61Z"/><path id="Path_7268-2" data-name="Path 7268-2" class="cls-36" d="M260.9,80.89l.48.6,1.38,1.72-.49-.62Z"/><path id="Path_7269-2" data-name="Path 7269-2" class="cls-37" d="M261.38,81.49l.48.6,1.4,1.74-.49-.62Z"/><path id="Path_7270-2" data-name="Path 7270-2" class="cls-38" d="M261.86,82.09l.48.6,1.41,1.76-.49-.62Z"/><path id="Path_7271-2" data-name="Path 7271-2" class="cls-39" d="M262.34,82.7l.47.6,1.42,1.77c-.16-.21-.32-.42-.49-.62Z"/><path id="Path_7272-2" data-name="Path 7272-2" class="cls-40" d="M262.81,83.3l.47.61,1.43,1.79-.48-.63Z"/><path id="Path_7273-2" data-name="Path 7273-2" class="cls-41" d="M263.28,83.91l.47.61,1.45,1.8-.49-.62Z"/><path id="Path_7274-2" data-name="Path 7274-2" class="cls-42" d="M263.75,84.52c.15.2.31.4.46.61L265.67,87l-.47-.63Z"/><path id="Path_7275-2" data-name="Path 7275-2" class="cls-43" d="M264.21,85.13c.16.2.31.4.46.61l1.48,1.84-.48-.63Z"/><path id="Path_7276-2" data-name="Path 7276-2" class="cls-44" d="M264.67,85.74c.16.2.31.41.46.61l1.49,1.86-.47-.63Z"/><path id="Path_7277-2" data-name="Path 7277-2" class="cls-45" d="M265.13,86.35l.46.62,1.5,1.87-.47-.63Z"/><path id="Path_7278-2" data-name="Path 7278-2" class="cls-4" d="M88.21,0l-1.28,0-.87,0,1.28,0Z"/><path id="Path_7279-2" data-name="Path 7279-2" class="cls-46" d="M86.93.05l-1.27,0L84.4.11l-.9,0,1.28,0,1.28,0Z"/><path id="Path_7280-2" data-name="Path 7280-2" class="cls-47" d="M84.39.11l-1.26,0L81.88.21,81,.19l1.27,0L83.5.09Z"/><path id="Path_7281-2" data-name="Path 7281-2" class="cls-47" d="M81.88.21,80.62.27,79.38.34l-.93,0L79.7.25,81,.19Z"/><path id="Path_7282-2" data-name="Path 7282-2" class="cls-48" d="M79.38.34,78.14.42l-1,0L78.45.32Z"/><path id="Path_7283-2" data-name="Path 7283-2" class="cls-49" d="M78.14.41,76.9.5,75.67.6h-1L76,.49,77.2.4Z"/><path id="Path_7284-2" data-name="Path 7284-2" class="cls-50" d="M75.67.6,74.44.7,73.22.81,72,.93H71L72.24.81,73.47.69l1.24-.1Z"/><path id="Path_7285-2" data-name="Path 7285-2" class="cls-51" d="M72,.93l-1.21.13-1.2.13-1.2.14h-1l1.21-.15,1.22-.14L71,.92Z"/><path id="Path_7286-2" data-name="Path 7286-2" class="cls-52" d="M68.39,1.33l-1.2.16c-.6.07-.79.1-1.19.16l-1.18.16-1.09,0,1.2-.17,1.2-.17,1.21-.15Z"/><path id="Path_7287-2" data-name="Path 7287-2" class="cls-53" d="M64.82,1.82,63.65,2l-1.1,0,1.19-.18Z"/><path id="Path_7288-2" data-name="Path 7288-2" class="cls-54" d="M63.65,2l-1.18.19-1.17.19-1.13,0,1.19-.2L62.55,2Z"/><path id="Path_7289-2" data-name="Path 7289-2" class="cls-54" d="M61.3,2.37l-1.16.2L59,2.78l-1.17,0L59,2.61l1.18-.21Z"/><path id="Path_7290-2" data-name="Path 7290-2" class="cls-54" d="M59,2.78,57.84,3l-1.15.23-1.14.23-1.14.24-1.25.07,1.16-.25,1.16-.23L56.65,3l1.17-.22Z"/><path id="Path_7291-2" data-name="Path 7291-2" class="cls-55" d="M54.41,3.69l-1.12.25-1.13.26-1.29.08L52,4l1.15-.26Z"/><path id="Path_7292-2" data-name="Path 7292-2" class="cls-56" d="M52.16,4.2,51,4.46l-1.11.27-1.34.11,1.14-.28,1.14-.28Z"/><path id="Path_7293-2" data-name="Path 7293-2" class="cls-57" d="M49.93,4.73,48.82,5l-1.36.12,1.13-.29Z"/><path id="Path_7294-2" data-name="Path 7294-2" class="cls-57" d="M48.82,5l-1.1.29-1.09.3-1.42.14,1.12-.3,1.13-.3Z"/><path id="Path_7295-2" data-name="Path 7295-2" class="cls-58" d="M46.63,5.59l-1.09.3-1.08.31L43,6.37l1.11-.32,1.11-.32Z"/><path id="Path_7296-2" data-name="Path 7296-2" class="cls-59" d="M44.46,6.21l-1.08.31-1.5.18L43,6.37Z"/><path id="Path_7297-2" data-name="Path 7297-2" class="cls-59" d="M43.38,6.52l-1.07.33L40.78,7l1.1-.34Z"/><path id="Path_7298-2" data-name="Path 7298-2" class="cls-60" d="M42.31,6.85l-1.06.33-1.06.34-1.6.22,1.09-.35L40.78,7Z"/><path id="Path_7299-2" data-name="Path 7299-2" class="cls-61" d="M40.19,7.52l-1.06.35-1,.36-1.66.25c.35-.13,1.08-.37,1.08-.37l1.08-.37Z"/><path id="Path_7300-2" data-name="Path 7300-2" class="cls-62" d="M38.08,8.23l-1,.36-1.69.27,1.07-.38Z"/><path id="Path_7301-2" data-name="Path 7301-2" class="cls-63" d="M37,8.59,36,9l-1.73.29,1.07-.39Z"/><path id="Path_7302-2" data-name="Path 7302-2" class="cls-29" d="M36,9l-1,.38-1.77.3,1.07-.4Z"/><path id="Path_7303-2" data-name="Path 7303-2" class="cls-64" d="M35,9.34l-1,.39-1.8.32,1.06-.4Z"/><path id="Path_7304-2" data-name="Path 7304-2" class="cls-64" d="M34,9.73l-1,.4-1.84.34,1.06-.42Z"/><path id="Path_7305-2" data-name="Path 7305-2" class="cls-30" d="M32.94,10.12l-1,.4-1.88.36,1.05-.42Z"/><path id="Path_7306-2" data-name="Path 7306-2" class="cls-65" d="M31.93,10.53l-1,.4L29,11.32l1-.43Z"/><path id="Path_7307-2" data-name="Path 7307-2" class="cls-66" d="M30.93,10.93l-1,.42-2,.4,1-.44Z"/><path id="Path_7308-2" data-name="Path 7308-2" class="cls-31" d="M29.94,11.35l-1,.42-2,.43,1-.45Z"/><path id="Path_7309-2" data-name="Path 7309-2" class="cls-67" d="M28.94,11.77l-1,.43-2.05.45,1-.45Z"/><path id="Path_7310-2" data-name="Path 7310-2" class="cls-32" d="M28,12.2l-1,.44-2.1.48,1-.46Z"/><path id="Path_7311-2" data-name="Path 7311-2" class="cls-68" d="M27,12.64l-1,.45-2.15.5,1-.47Z"/><path id="Path_7312-2" data-name="Path 7312-2" class="cls-33" d="M26,13.09l-1,.45-2.2.53c.33-.17.67-.33,1-.48Z"/><path id="Path_7313-2" data-name="Path 7313-2" class="cls-69" d="M25.05,13.54l-1,.46-2.25.55,1-.48Z"/><path id="Path_7314-2" data-name="Path 7314-2" class="cls-35" d="M24.09,14l-1,.47-2.3.58,1-.5Z"/><path id="Path_7315-2" data-name="Path 7315-2" class="cls-36" d="M23.13,14.47l-.94.47-2.35.61,1-.5Z"/><path id="Path_7316-2" data-name="Path 7316-2" class="cls-37" d="M22.19,14.94l-.94.48-2.4.64,1-.51Z"/><path id="Path_7317-2" data-name="Path 7317-2" class="cls-70" d="M21.25,15.42l-.93.49-2.46.67,1-.52Z"/><path id="Path_7318-2" data-name="Path 7318-2" class="cls-40" d="M20.32,15.92l-.92.5-2.52.7,1-.53Z"/><path id="Path_7319-2" data-name="Path 7319-2" class="cls-71" d="M19.4,16.41l-.92.5-2.57.73,1-.54Z"/><path id="Path_7320-2" data-name="Path 7320-2" class="cls-43" d="M18.48,16.92c-.3.16-.61.33-.91.51l-2.63.76,1-.54Z"/><path id="Path_7321-2" data-name="Path 7321-2" class="cls-72" d="M265.59,87l-130,33.74-.67,2.59L267.09,88.85Z"/><path id="Path_7322-2" data-name="Path 7322-2" class="cls-73" d="M135.61,120.71,17.57,17.42l-2.63.77L135,123.3Z"/><path id="Path_7323-2" data-name="Path 7323-2" class="cls-74" d="M17.57,17.42C36.67,6.6,60.69.34,88.21,0h0C156.06-.75,227.69,35.59,265.59,87h0l-130,33.75h0Z"/></g></g></g></svg>