<svg xmlns="http://www.w3.org/2000/svg" xmlns:xlink="http://www.w3.org/1999/xlink" viewBox="0 0 121.98 107.3"><defs><style>.cls-1{fill:#ff9f5e;}.cls-2,.cls-3,.cls-5{fill:none;stroke:#ffd500;stroke-width:1.26px;}.cls-2{opacity:0.42;}.cls-2,.cls-3,.cls-4,.cls-5,.cls-8{isolation:isolate;}.cls-3{opacity:0.25;}.cls-4,.cls-8{opacity:0.8;}.cls-4{fill:url(#linear-gradient);}.cls-5{stroke-miterlimit:10;opacity:0.41;}.cls-6{fill:#ffd500;}.cls-7{fill:#fff;}.cls-8{fill:#ffe561;}</style><linearGradient id="linear-gradient" x1="-5154.77" y1="1697.36" x2="-5153.92" y2="1698.39" gradientTransform="matrix(73.41, 0, 0, -99.08, 378488.43, 168272.68)" gradientUnits="userSpaceOnUse"><stop offset="0" stop-color="#ffdf40"/><stop offset="0.16" stop-color="#ffd500"/><stop offset="0.25" stop-color="#ffd814"/><stop offset="0.54" stop-color="#ffe251"/><stop offset="0.75" stop-color="#ffe876"/><stop offset="0.86" stop-color="#ffeb85"/></linearGradient></defs><title>yellow</title><g id="Layer_2" data-name="Layer 2"><g id="Layer_1-2" data-name="Layer 1"><g id="Group_719" data-name="Group 719"><path id="Path_7673-2" data-name="Path 7673-2" class="cls-1" d="M.58.32,48,80.11l11,26.56L12.24,27.24Z"/><path id="Path_7674-2" data-name="Path 7674-2" class="cls-2" d="M.58.32,48,80.11l11,26.56L12.24,27.24Z"/><line id="Line_24-2" data-name="Line 24-2" class="cls-3" x1="121.33" y1="35.46" x2="12.24" y2="27.24"/><path id="Path_7675-2" data-name="Path 7675-2" class="cls-4" d="M113,7.35c-.07.23-.14.46-.2.68l-.21.69-.21.68c-.08.22-.15.45-.22.68s-.15.45-.23.68-.15.45-.23.68-.15.45-.23.68l-.24.67c-.08.23-.16.45-.25.68,0,0-.16.45-.25.67s-.17.45-.25.68l-.27.67c-.08.22-.17.44-.27.67l-.27.67c-.09.22-.18.45-.28.67l-.28.67-.29.66c-.1.22-.2.44-.29.66l-.3.67c-.1.22-.2.44-.31.66s-.21.44-.31.66l-.32.66-.32.66-.33.65-.33.66-.34.65-.34.65c-.11.22-.23.43-.35.65s-.23.44-.35.65l-.36.65-.36.64-.37.65c-.12.21-.25.42-.37.64l-.38.64-.38.64-.39.63-.4.64c-.13.21-.26.42-.4.63s-.26.43-.4.64l-.4.63-.42.62-.42.63-.42.63-.43.62-.43.62-.44.62c-.15.2-.29.41-.44.62l-.45.61-.45.61-.46.62c-.16.2-.31.4-.46.61l-.47.6c-.15.21-.31.4-.47.61l-.48.6L94,43l-.48.6-.49.6c-.17.2-.33.4-.5.59l-.5.6c-.17.19-.33.4-.5.59l-.5.59-.52.58c-.17.2-.34.39-.52.58l-.52.59c-.17.19-.35.38-.52.58l-.53.57-.54.58-.54.57-.54.57-.55.57-.55.56-.56.57-.56.56L84,54c-.18.19-.38.37-.56.56l-.58.55-.58.55-.58.55-.58.54-.59.55-.6.53-.6.54-.6.54-.6.53-.61.53-.62.53-.61.52-.63.52L75,62l-.63.51-.63.52-.64.51-.64.5-.64.5-.65.5-.66.5-.65.5-.66.5-.66.48-.66.49-.67.48-.68.49-.67.47-.68.48-.68.47-.69.47-.69.46-.69.46-.7.46-.7.46-.7.45-.71.45-.71.45L58.2,74l-.72.44-.72.44-.72.43-.72.43-.73.43-.73.42-.74.42-.73.41-.74.42-.74.4-.75.41-.74.4-.76.4-.75.4,11,26.56.73-.38.72-.39.72-.39.72-.39.71-.4.72-.4.71-.4.7-.41c.24-.13.47-.27.7-.41l.7-.41.7-.42c.24-.13.47-.27.7-.42l.69-.42.69-.42.68-.43.69-.44.67-.43.68-.44.68-.44.66-.45.67-.45.67-.45.66-.45.65-.46.66-.46.65-.47.64-.47.65-.47.64-.47.63-.48.64-.48.63-.48.62-.48.62-.49.62-.49.62-.5.61-.5.61-.5.6-.5.6-.5.6-.51.59-.51.59-.51.59-.52.58-.52.58-.52.57-.52.57-.53.57-.53.56-.53.56-.54.55-.53.56-.54.54-.55.54-.54.54-.55.54-.55.53-.55.52-.55.52-.56.52-.56.51-.56.51-.56.5-.57.5-.57.5-.57.5-.58.48-.57c.16-.19.32-.39.49-.58l.47-.58.48-.58c.15-.2.31-.39.47-.59l.46-.58.46-.59c.16-.2.3-.4.46-.59l.45-.6.45-.59.44-.6.44-.6.43-.6c.14-.2.29-.4.43-.61l.42-.6.42-.6.42-.61c.13-.21.27-.41.41-.61l.4-.62c.13-.2.26-.41.4-.61l.39-.62.39-.62.39-.62c.13-.2.25-.41.38-.62s.25-.42.38-.62l.37-.63.36-.63c.12-.2.25-.42.36-.63s.24-.42.36-.63.24-.42.35-.63.24-.42.35-.63.23-.43.34-.64.23-.42.34-.64l.33-.63.33-.65c.11-.21.21-.42.32-.64s.21-.43.32-.64.2-.43.31-.65l.3-.64c.11-.22.2-.44.3-.65l.3-.65c.09-.22.2-.44.29-.65s.19-.44.29-.66.18-.43.28-.65l.27-.66.27-.65.27-.66.26-.66.25-.66c.09-.22.17-.44.25-.66l.24-.67.24-.66.24-.67.23-.66c.07-.23.15-.45.22-.67l.21-.67c.07-.23.15-.45.22-.67s.14-.45.2-.68.14-.44.2-.67.14-.45.2-.67.13-.45.19-.68Z"/><path id="Path_7676-2" data-name="Path 7676-2" class="cls-5" d="M113,7.35c-.07.23-.14.46-.2.68l-.21.69-.21.68c-.08.22-.15.45-.22.68s-.15.45-.23.68-.15.45-.23.68-.15.45-.23.68l-.24.67c-.08.23-.16.45-.25.68,0,0-.16.45-.25.67s-.17.45-.25.68l-.27.67c-.08.22-.17.44-.27.67l-.27.67c-.09.22-.18.45-.28.67l-.28.67-.29.66c-.1.22-.2.44-.29.66l-.3.67c-.1.22-.2.44-.31.66s-.21.44-.31.66l-.32.66-.32.66-.33.65-.33.66-.34.65-.34.65c-.11.22-.23.43-.35.65s-.23.44-.35.65l-.36.65-.36.64-.37.65c-.12.21-.25.42-.37.64l-.38.64-.38.64-.39.63-.4.64c-.13.21-.26.42-.4.63s-.26.43-.4.64l-.4.63-.42.62-.42.63-.42.63-.43.62-.43.62-.44.62c-.15.2-.29.41-.44.62l-.45.61-.45.61-.46.62c-.16.2-.31.4-.46.61l-.47.6c-.15.21-.31.4-.47.61l-.48.6L94,43l-.48.6-.49.6c-.17.2-.33.4-.5.59l-.5.6c-.17.19-.33.4-.5.59l-.5.59-.52.58c-.17.2-.34.39-.52.58l-.52.59c-.17.19-.35.38-.52.58l-.53.57-.54.58-.54.57-.54.57-.55.57-.55.56-.56.57-.56.56L84,54c-.18.19-.38.37-.56.56l-.58.55-.58.55-.58.55-.58.54-.59.55-.6.53-.6.54-.6.54-.6.53-.61.53-.62.53-.61.52-.63.52L75,62l-.63.51-.63.52-.64.51-.64.5-.64.5-.65.5-.66.5-.65.5-.66.5-.66.48-.66.49-.67.48-.68.49-.67.47-.68.48-.68.47-.69.47-.69.46-.69.46-.7.46-.7.46-.7.45-.71.45-.71.45L58.2,74l-.72.44-.72.44-.72.43-.72.43-.73.43-.73.42-.74.42-.73.41-.74.42-.74.4-.75.41-.74.4-.76.4-.75.4,11,26.56.73-.38.72-.39.72-.39.72-.39.71-.4.72-.4.71-.4.7-.41c.24-.13.47-.27.7-.41l.7-.41.7-.42c.24-.13.47-.27.7-.42l.69-.42.69-.42.68-.43.69-.44.67-.43.68-.44.68-.44.66-.45.67-.45.67-.45.66-.45.65-.46.66-.46.65-.47.64-.47.65-.47.64-.47.63-.48.64-.48.63-.48.62-.48.62-.49.62-.49.62-.5.61-.5.61-.5.6-.5.6-.5.6-.51.59-.51.59-.51.59-.52.58-.52.58-.52.57-.52.57-.53.57-.53.56-.53.56-.54.55-.53.56-.54.54-.55.54-.54.54-.55.54-.55.53-.55.52-.55.52-.56.52-.56.51-.56.51-.56.5-.57.5-.57.5-.57.5-.58.48-.57c.16-.19.32-.39.49-.58l.47-.58.48-.58c.15-.2.31-.39.47-.59l.46-.58.46-.59c.16-.2.3-.4.46-.59l.45-.6.45-.59.44-.6.44-.6.43-.6c.14-.2.29-.4.43-.61l.42-.6.42-.6.42-.61c.13-.21.27-.41.41-.61l.4-.62c.13-.2.26-.41.4-.61l.39-.62.39-.62.39-.62c.13-.2.25-.41.38-.62s.25-.42.38-.62l.37-.63.36-.63c.12-.2.25-.42.36-.63s.24-.42.36-.63.24-.42.35-.63.24-.42.35-.63.23-.43.34-.64.23-.42.34-.64l.33-.63.33-.65c.11-.21.21-.42.32-.64s.21-.43.32-.64.2-.43.31-.65l.3-.64c.11-.22.2-.44.3-.65l.3-.65c.09-.22.2-.44.29-.65s.19-.44.29-.66.18-.43.28-.65l.27-.66.27-.65.27-.66.26-.66.25-.66c.09-.22.17-.44.25-.66l.24-.67.24-.66.24-.67.23-.66c.07-.23.15-.45.22-.67l.21-.67c.07-.23.15-.45.22-.67s.14-.45.2-.68.14-.44.2-.67.14-.45.2-.67.13-.45.19-.68Z"/><path id="Path_7677-2" data-name="Path 7677-2" class="cls-6" d="M111.3,7.45c-.06.22-.13.44-.19.66,0,0-.13.44-.2.66l1.63,0c.07-.23.2-.69.2-.69.07-.22.14-.45.2-.68Z"/><path id="Path_7678-2" data-name="Path 7678-2" class="cls-6" d="M110.9,8.77c-.07.22-.13.44-.2.66,0,0-.14.43-.22.65l-.21.66s-.15.43-.22.65c0,0-.16.44-.23.66l-.24.65s-.15.43-.24.65l1.59.12.24-.68.24-.67.24-.68.23-.68c.07-.23.22-.68.22-.68.08-.23.22-.68.22-.68l.21-.68Z"/><path id="Path_7679-2" data-name="Path 7679-2" class="cls-6" d="M109.35,13.35l-.24.65-.25.65-.26.65-.26.65,1.55.21.27-.67c.09-.22.26-.67.26-.67.09-.22.26-.67.26-.67.09-.23.17-.45.25-.68Z"/><path id="Path_7680-2" data-name="Path 7680-2" class="cls-6" d="M108.34,15.94l-.27.65-.27.65-.27.64,1.53.29.28-.67c.1-.22.28-.67.28-.67l.28-.67Z"/><path id="Path_7681-2" data-name="Path 7681-2" class="cls-6" d="M107.53,17.88l-.29.65,1.53.3c.1-.22.19-.45.29-.67Z"/><path id="Path_7682-2" data-name="Path 7682-2" class="cls-6" d="M107.24,18.53c-.1.21-.19.43-.29.64l1.52.32.3-.66Z"/><path id="Path_7683-2" data-name="Path 7683-2" class="cls-6" d="M107,19.17c-.09.21-.19.42-.29.64l1.51.35.3-.67Z"/><path id="Path_7684-2" data-name="Path 7684-2" class="cls-6" d="M106.66,19.81l-.3.64-.3.64,1.5.39.31-.66.3-.66Z"/><path id="Path_7685-2" data-name="Path 7685-2" class="cls-6" d="M106.06,21.09l-.31.64,1.49.41c.11-.22.21-.44.31-.66Z"/><path id="Path_7686-2" data-name="Path 7686-2" class="cls-6" d="M105.75,21.73l-.31.63,1.48.44.32-.66Z"/><path id="Path_7687-2" data-name="Path 7687-2" class="cls-6" d="M105.44,22.36c-.11.21-.21.43-.32.64l1.47.45.33-.65Z"/><path id="Path_7688-2" data-name="Path 7688-2" class="cls-6" d="M105.12,23l-.33.63,1.47.48.33-.66Z"/><path id="Path_7689-2" data-name="Path 7689-2" class="cls-6" d="M104.79,23.63q-.15.32-.33.63l1.46.5c.12-.21.23-.43.34-.65Z"/><path id="Path_7690-2" data-name="Path 7690-2" class="cls-6" d="M104.46,24.26l-.33.64,1.45.51.34-.65Z"/><path id="Path_7691-2" data-name="Path 7691-2" class="cls-6" d="M104.13,24.9c-.11.21-.23.41-.34.63l1.44.53c.12-.21.23-.43.35-.65Z"/><path id="Path_7692-2" data-name="Path 7692-2" class="cls-6" d="M103.79,25.53l-.34.62,1.43.56c.12-.21.24-.43.35-.65Z"/><path id="Path_7693-2" data-name="Path 7693-2" class="cls-6" d="M103.45,26.15l-.35.63,1.42.58.36-.65Z"/><path id="Path_7694-2" data-name="Path 7694-2" class="cls-6" d="M103.1,26.78l-.36.63,1.42.6.36-.65Z"/><path id="Path_7695-2" data-name="Path 7695-2" class="cls-6" d="M102.74,27.4l-.36.63,1.41.62.37-.65Z"/><path id="Path_7696-2" data-name="Path 7696-2" class="cls-6" d="M102.38,28l-.36.62-.37.62,1.39.66.38-.64.37-.64Z"/><path id="Path_7697-2" data-name="Path 7697-2" class="cls-6" d="M101.65,29.27c-.13.21-.25.42-.38.62,0,0-.25.42-.38.62l1.37.7.39-.64.39-.64Z"/><path id="Path_7698-2" data-name="Path 7698-2" class="cls-6" d="M100.89,30.51c-.12.21-.25.41-.38.62l1.36.71q.21-.32.39-.63Z"/><path id="Path_7699-2" data-name="Path 7699-2" class="cls-6" d="M100.51,31.13l-.39.61,1.35.74c.14-.21.27-.42.4-.64Z"/><path id="Path_7700-2" data-name="Path 7700-2" class="cls-6" d="M100.12,31.74l-.39.62,1.34.75.4-.63Z"/><path id="Path_7701-2" data-name="Path 7701-2" class="cls-6" d="M99.73,32.36l-.4.61-.4.61,1.32.79.41-.63c.14-.21.28-.42.41-.63Z"/><path id="Path_7702-2" data-name="Path 7702-2" class="cls-6" d="M98.92,33.58l-.41.61,1.32.81.42-.63Z"/><path id="Path_7703-2" data-name="Path 7703-2" class="cls-6" d="M98.51,34.19l-.41.6,1.3.83.42-.63Z"/><path id="Path_7704-2" data-name="Path 7704-2" class="cls-6" d="M98.1,34.79l-.42.61,1.3.84.43-.62Z"/><path id="Path_7705-2" data-name="Path 7705-2" class="cls-6" d="M97.68,35.4l-.43.6-.42.6,1.27.88.44-.62.43-.62Z"/><path id="Path_7706-2" data-name="Path 7706-2" class="cls-6" d="M96.83,36.61l-.43.6,1.26.9.44-.62Z"/><path id="Path_7707-2" data-name="Path 7707-2" class="cls-6" d="M96.4,37.2l-.44.6,1.25.92.45-.62Z"/><path id="Path_7708-2" data-name="Path 7708-2" class="cls-6" d="M96,37.8l-.44.6,1.24.93.45-.62Z"/><path id="Path_7709-2" data-name="Path 7709-2" class="cls-6" d="M95.52,38.4l-.45.6,1.23.94c.16-.2.31-.4.46-.61Z"/><path id="Path_7710-2" data-name="Path 7710-2" class="cls-6" d="M95.07,39l-.45.6,1.22,1c.16-.2.31-.4.46-.61Z"/><path id="Path_7711-2" data-name="Path 7711-2" class="cls-6" d="M94.63,39.59l-.46.59,1.21,1,.47-.61Z"/><path id="Path_7712-2" data-name="Path 7712-2" class="cls-6" d="M94.17,40.18c-.16.19-.31.39-.46.58l1.2,1,.47-.6Z"/><path id="Path_7713-2" data-name="Path 7713-2" class="cls-6" d="M93.7,40.76c-.15.2-.3.4-.46.59l-.47.58L94,43l.48-.6.47-.6Z"/><path id="Path_7714-2" data-name="Path 7714-2" class="cls-6" d="M92.77,41.93c-.15.2-.31.39-.47.59l1.16,1L94,43Z"/><path id="Path_7715-2" data-name="Path 7715-2" class="cls-6" d="M92.3,42.52l-.48.58L93,44.16l.49-.6Z"/><path id="Path_7716-2" data-name="Path 7716-2" class="cls-6" d="M91.82,43.09l-.48.58,1.14,1.08.49-.59Z"/><path id="Path_7717-2" data-name="Path 7717-2" class="cls-6" d="M91.34,43.68l-.49.57-.49.58,1.11,1.11.5-.59c.17-.2.34-.39.5-.59Z"/><path id="Path_7718-2" data-name="Path 7718-2" class="cls-6" d="M90.36,44.83l-.5.57L91,46.53l.51-.59Z"/><path id="Path_7719-2" data-name="Path 7719-2" class="cls-6" d="M89.86,45.4l-.5.57,1.09,1.14.52-.58Z"/><path id="Path_7720-2" data-name="Path 7720-2" class="cls-6" d="M89.36,46l-.5.57,1.08,1.16.52-.59Z"/><path id="Path_7721-2" data-name="Path 7721-2" class="cls-6" d="M88.86,46.54l-.51.56-.51.57,1,1.19c.17-.2.52-.58.52-.58l.53-.58Z"/><path id="Path_7722-2" data-name="Path 7722-2" class="cls-6" d="M87.84,47.67l-.52.56,1,1.2.53-.57Z"/><path id="Path_7723-2" data-name="Path 7723-2" class="cls-6" d="M87.32,48.23l-.52.56,1,1.22.54-.57Z"/><path id="Path_7724-2" data-name="Path 7724-2" class="cls-6" d="M86.8,48.79l-.53.56,1,1.23.54-.57Z"/><path id="Path_7725-2" data-name="Path 7725-2" class="cls-6" d="M86.28,49.35l-.53.55,1,1.25.55-.57Z"/><path id="Path_7726-2" data-name="Path 7726-2" class="cls-6" d="M85.75,49.9l-.54.55,1,1.27.55-.57Z"/><path id="Path_7727-2" data-name="Path 7727-2" class="cls-6" d="M85.21,50.45l-.53.55,1,1.28.55-.56Z"/><path id="Path_7728-2" data-name="Path 7728-2" class="cls-6" d="M84.68,51l-.55.55,1,1.3.56-.56Z"/><path id="Path_7729-2" data-name="Path 7729-2" class="cls-6" d="M84.13,51.55l-.54.55.93,1.31.56-.56Z"/><path id="Path_7730-2" data-name="Path 7730-2" class="cls-6" d="M83.59,52.1l-.56.54L84,54l.56-.55Z"/><path id="Path_7731-2" data-name="Path 7731-2" class="cls-6" d="M83,52.64l-.56.54.91,1.34L84,54Z"/><path id="Path_7732-2" data-name="Path 7732-2" class="cls-6" d="M82.48,53.18l-.55.54.88,1.35.58-.55Z"/><path id="Path_7733-2" data-name="Path 7733-2" class="cls-6" d="M81.93,53.72l-.57.53.88,1.37.57-.55Z"/><path id="Path_7734-2" data-name="Path 7734-2" class="cls-6" d="M81.36,54.25l-.56.54.86,1.38.58-.55Z"/><path id="Path_7735-2" data-name="Path 7735-2" class="cls-6" d="M80.8,54.79l-.57.52-.57.53.82,1.42.59-.54.59-.55Z"/><path id="Path_7736-2" data-name="Path 7736-2" class="cls-6" d="M79.66,55.84l-.58.53-.58.52.79,1.44.6-.54.59-.53Z"/><path id="Path_7737-2" data-name="Path 7737-2" class="cls-6" d="M78.5,56.89l-.59.52-.59.52.76,1.47.61-.53.6-.54Z"/><path id="Path_7738-2" data-name="Path 7738-2" class="cls-6" d="M77.33,57.93l-.6.51.74,1.49.61-.53Z"/><path id="Path_7739-2" data-name="Path 7739-2" class="cls-6" d="M76.73,58.44l-.59.51.72,1.5.61-.52Z"/><path id="Path_7740-2" data-name="Path 7740-2" class="cls-6" d="M76.14,59l-.6.51.7,1.52.62-.52Z"/><path id="Path_7741-2" data-name="Path 7741-2" class="cls-6" d="M75.54,59.46l-.6.51s-.4.34-.61.5L75,62l.63-.51.62-.53Z"/><path id="Path_7742-2" data-name="Path 7742-2" class="cls-6" d="M74.33,60.47l-.61.5-.61.5.62,1.58.63-.52L75,62Z"/><path id="Path_7743-2" data-name="Path 7743-2" class="cls-6" d="M73.11,61.47l-.62.5-.62.5.58,1.6.64-.51.64-.51Z"/><path id="Path_7744-2" data-name="Path 7744-2" class="cls-6" d="M71.87,62.46l-.62.49.56,1.62.64-.5Z"/><path id="Path_7745-2" data-name="Path 7745-2" class="cls-6" d="M71.25,63l-.63.49.55,1.63.64-.5Z"/><path id="Path_7746-2" data-name="Path 7746-2" class="cls-6" d="M70.62,63.44l-.63.48.52,1.64.65-.5Z"/><path id="Path_7747-2" data-name="Path 7747-2" class="cls-6" d="M70,63.92l-.64.48.5,1.66.66-.5Z"/><path id="Path_7748-2" data-name="Path 7748-2" class="cls-6" d="M69.35,64.4l-.64.48.49,1.67.66-.49Z"/><path id="Path_7749-2" data-name="Path 7749-2" class="cls-6" d="M68.71,64.88l-.64.48L68.53,67l.67-.49Z"/><path id="Path_7750-2" data-name="Path 7750-2" class="cls-6" d="M68.07,65.36l-.64.47.44,1.7.67-.49Z"/><path id="Path_7751-2" data-name="Path 7751-2" class="cls-6" d="M67.43,65.83l-.65.47L67.2,68l.67-.48Z"/><path id="Path_7752-2" data-name="Path 7752-2" class="cls-6" d="M66.78,66.3l-.65.46-.65.47L65.85,69l.68-.47L67.2,68Z"/><path id="Path_7753-2" data-name="Path 7753-2" class="cls-6" d="M65.48,67.23l-.66.46.35,1.76.68-.48Z"/><path id="Path_7754-2" data-name="Path 7754-2" class="cls-6" d="M64.82,67.69l-.66.45.33,1.78.68-.47Z"/><path id="Path_7755-2" data-name="Path 7755-2" class="cls-6" d="M64.16,68.14l-.66.45.3,1.79.69-.47Z"/><path id="Path_7756-2" data-name="Path 7756-2" class="cls-6" d="M63.5,68.6l-.67.45c-.33.22-.44.3-.67.44l.26,1.82.69-.46.69-.47Z"/><path id="Path_7757-2" data-name="Path 7757-2" class="cls-6" d="M62.16,69.49l-.67.45-.67.44.2,1.85.7-.46.7-.46Z"/><path id="Path_7758-2" data-name="Path 7758-2" class="cls-6" d="M60.82,70.38l-.68.44.18,1.86.7-.45Z"/><path id="Path_7759-2" data-name="Path 7759-2" class="cls-6" d="M60.14,70.82l-.68.43-.68.43.12,1.89.71-.44.7-.45Z"/><path id="Path_7760-2" data-name="Path 7760-2" class="cls-6" d="M58.78,71.68l-.69.43.1,1.91.71-.45Z"/><path id="Path_7761-2" data-name="Path 7761-2" class="cls-6" d="M58.09,72.11l-.69.42.07,1.93.72-.44Z"/><path id="Path_7762-2" data-name="Path 7762-2" class="cls-6" d="M57.4,72.53l-.69.43,0,1.93.71-.43Z"/><path id="Path_7763-2" data-name="Path 7763-2" class="cls-6" d="M56.71,73l-.7.41,0,2,.72-.44Z"/><path id="Path_7764-2" data-name="Path 7764-2" class="cls-6" d="M56,73.37l-.7.42v2l.73-.43Z"/><path id="Path_7765-2" data-name="Path 7765-2" class="cls-6" d="M55.32,73.79l-.7.41,0,2,.73-.42Z"/><path id="Path_7766-2" data-name="Path 7766-2" class="cls-6" d="M54.62,74.2c-.24.13-.47.27-.7.41l-.06,2,.73-.43Z"/><path id="Path_7767-2" data-name="Path 7767-2" class="cls-6" d="M53.92,74.61l-.71.4-.09,2,.74-.41Z"/><path id="Path_7768-2" data-name="Path 7768-2" class="cls-6" d="M53.21,75l-.71.4-.12,2,.74-.41Z"/><path id="Path_7769-2" data-name="Path 7769-2" class="cls-6" d="M52.5,75.41l-.71.4-.14,2,.73-.42Z"/><path id="Path_7770-2" data-name="Path 7770-2" class="cls-6" d="M51.79,75.81l-.71.39-.18,2.06.75-.4Z"/><path id="Path_7771-2" data-name="Path 7771-2" class="cls-6" d="M51.08,76.2l-.72.39-.2,2.08.74-.41Z"/><path id="Path_7772-2" data-name="Path 7772-2" class="cls-6" d="M50.36,76.59l-.71.39-.24,2.1.75-.4Z"/><path id="Path_7773-2" data-name="Path 7773-2" class="cls-6" d="M49.65,77l-.72.38-.27,2.11.75-.4Z"/><path id="Path_7774-2" data-name="Path 7774-2" class="cls-6" d="M48.93,77.36l-.73.38-.3,2.13.76-.4Z"/><path id="Path_7775-2" data-name="Path 7775-2" class="cls-7" d="M2.18.62,48.28,78,48,80.11.57.32Z"/><path id="Path_7776-2" data-name="Path 7776-2" class="cls-8" d="M111.38,7.69,2.18.62h0L48.28,78h0A144,144,0,0,0,88.43,47.35h0C99.26,35.37,107.24,21.9,111.38,7.69Z"/></g></g></g></svg>